<?xml version="1.0" encoding="utf-8"?>
<!-- Generator: Adobe Illustrator 22.0.1, SVG Export Plug-In . SVG Version: 6.00 Build 0)  -->
<svg version="1.1" id="Layer_2" xmlns="http://www.w3.org/2000/svg" xmlns:xlink="http://www.w3.org/1999/xlink" x="0px" y="0px"
	 viewBox="0 0 400 400" style="enable-background:new 0 0 400 400;" xml:space="preserve">
<style type="text/css">
	.st0{fill:#FFFFFF;stroke:#000000;stroke-width:14;stroke-miterlimit:10;}
	.st1{fill:none;stroke:#000000;stroke-width:14;stroke-linecap:round;stroke-miterlimit:10;}
</style>
<path class="st0" d="M273.7,282.3c0.6,7.3,3,22.7,4.3,29c1.3,6.3,7.3,21.3-7.3,32.7c-14.7,11.3-60,20-93,19S110,352.7,101,340.3
	c-9-12.3,2.7-31.7,3-41c0.3-9.3,2.3-129,2.3-129s65.3-77.7,164.3-38.7C270.7,131.7,270.8,244.8,273.7,282.3z"/>
<path class="st0" d="M272.4,255.5c0,0,24.6,10.7,22.9-38.5s-1-55.3-24.5-58.5l-0.1-26.8c0,0,20.3-9.3,34-0.3c13.7,9,21,18.3,21,32
	c0,13.7,0,87.3,0,87.3s-0.3,19-17.3,29.7c-17,10.7-34.6,4.1-34.6,4.1L272.4,255.5z"/>
<line class="st1" x1="191" y1="180.5" x2="191" y2="295"/>
<line class="st1" x1="240.3" y1="174.1" x2="247.3" y2="289.1"/>
<line class="st1" x1="141.7" y1="174.1" x2="134.7" y2="289.1"/>
<path class="st0" d="M284.3,80c8.1,5.7,11.1,32.3,0.1,37.7c-12.7,6.2-11.5,34-27.8,26.6c-14.1-6.3-11.2-7.7-21.8,1.4
	c-16,13.6-20-12-38.8,7.5c-11.2,11.6-17.8-12.5-21.8,5.2s-8.8,30.7-16.4,19.7s-12.9,0.9-14.5,19.5s-3.4,40.1-13,38.4
	s-18.1-22.6-18.7-36c-1-22-13.8-14-13.7-26.3c0.1-12.3,4.7-17.3-6.9-17c-16.1,0.5-23-8.4-22.3-27.1c0.7-18.7-3.6-34.8,6.4-42.6
	c8.5-6.6,6.3-26.7,18.8-30.5c18.6-5.7,16.1-13.4,30.5-20.5c24.8-12.3,37.1-4.7,68.3-4.7c30.8,0.1,28.8-18.4,55-0.3
	c15.3,10.5,3.3,19.8,25,20.8S274.3,73,284.3,80z"/>
<path class="st1" d="M104.7,308.7c0,0,36.7,26.7,114,14"/>
<path class="st1" d="M216.1,101c7-9.9,20.7-12.3,30.6-5.4c6,4.2,9.3,11,9.4,17.8"/>
<path class="st1" d="M191,76.9c7-9.9,20.7-12.3,30.6-5.4c6,4.2,9.3,11,9.4,17.8"/>
<path class="st1" d="M101.8,122.8c-4.4-11.3,1.2-24,12.5-28.4c6.9-2.7,14.3-1.7,20,2.1"/>
<path class="st1" d="M122.5,89.4c-3.7-11.6,2.7-23.9,14.3-27.6c7-2.2,14.4-0.7,19.8,3.4"/>
</svg>
