<?xml version="1.0" encoding="utf-8"?>
<!-- Generator: Adobe Illustrator 22.0.1, SVG Export Plug-In . SVG Version: 6.00 Build 0)  -->
<svg version="1.1" xmlns="http://www.w3.org/2000/svg" xmlns:xlink="http://www.w3.org/1999/xlink" x="0px" y="0px"
	 viewBox="0 0 400 400" style="enable-background:new 0 0 400 400;" xml:space="preserve">
<style type="text/css">
	.st0{fill:#CCCCCC;stroke:#000000;stroke-width:5;stroke-linejoin:bevel;stroke-miterlimit:10;}
	.st1{fill:#CCCCCC;stroke:#000000;stroke-width:5.011;stroke-linejoin:round;stroke-miterlimit:10;}
	.st2{fill:#73B6FF;fill-opacity:0.61;}
	.st3{fill:#F9ECB9;}
	.st4{fill:#C69D4A;}
	.st5{fill:#E0B568;}
	.st6{fill:none;stroke:#000000;stroke-width:3.8601;stroke-miterlimit:10;}
	.st7{fill:#F9ECB9;stroke:#000000;stroke-width:3.8601;stroke-miterlimit:10;}
	.st8{fill:#FFFEFD;}
	.st9{fill:#CCCCCC;stroke:#000000;stroke-width:5;stroke-linejoin:round;stroke-miterlimit:10;}
	.st10{fill:#4AB2FF;fill-opacity:0.61;}
	.st11{fill:#CCCCCC;stroke:#000000;stroke-width:4.7961;stroke-linejoin:round;stroke-miterlimit:10;}
	.st12{fill:#CCCCCC;stroke:#000000;stroke-width:5.2336;stroke-linejoin:bevel;stroke-miterlimit:10;}
	.st13{fill:none;stroke:#000000;stroke-width:5.2336;stroke-linecap:round;stroke-linejoin:bevel;stroke-miterlimit:10;}
</style>
<g id="burnerPlate">
	<polygon class="st0" points="353,328.9 47,328.9 74,293.6 326,293.6 	"/>
	<rect x="47" y="328.9" class="st0" width="306" height="50.6"/>
</g>
<g id="Layer_12">
	<path class="st1" d="M94.8,123.9c0,0,87.8-19.4,210.5,0c6.1,1-37.6,31.2-37.6,31.2l-54,147l-96.6-1.3l-1.5-162.3
		C115.5,138.3,94.2,143.1,94.8,123.9"/>
</g>
<g id="potBack">
	<g>
		<path class="st2" d="M213.6,196.8c-1.4,0-2.8,0-4.3,0C210.8,196.9,212.2,196.9,213.6,196.8z"/>
		<path class="st2" d="M209.1,196.9c-1.3,0-2.7,0-4,0C206.4,196.9,207.8,196.9,209.1,196.9z"/>
		<path class="st2" d="M204.5,196.9c-1.5,0-3,0-4.5,0C201.5,196.9,203,196.9,204.5,196.9z"/>
		<path class="st2" d="M200,194c-46.7,0-84.5,2.7-84.5,6H218v5.8c38-0.6,66.5-3,66.5-5.8C284.5,196.6,246.7,194,200,194z"/>
		<path class="st2" d="M218,196.8c-1.4,0-2.9,0-4.4,0.1C215.1,196.8,216.5,196.8,218,196.8z"/>
	</g>
</g>
<g id="milledGrains">
	<path class="st3" d="M213.1,104.1c-11.1,0.9-34.4-0.2-45.8,0c-6.6,0.1-21.8-6.4-25.7-19.1c-4.2-13.8,8.9-58.5,8.9-58.5
		c0-6.6,6.5-10.5,13.1-10.5h49.2c6.6,0,15,0.4,15,7c0,0,15.7,51.9,9.8,68.6C235.4,97.8,219.7,103.6,213.1,104.1z"/>
	<path class="st4" d="M234.1,51.7c0,1.7,14.4,41.4-8.3,49.8c-8,3-62,4.8-71.9-1.9c-22-15-8.1-45-8.1-47.3c0-2.2,15.3,2.6,46-0.2
		C221.6,49.5,234.1,49.5,234.1,51.7z"/>
	<path class="st5" d="M234.1,51.7c0,2.2-12.8,9.5-42.8,9.5s-45.6-6.6-45.6-8.8c0-2.2,15.3,2.6,46-0.2
		C221.6,49.5,234.1,49.5,234.1,51.7z"/>
	<path class="st6" d="M213.1,104.1c-11.1,0.9-34.4-0.2-45.8,0c-6.6,0.1-21.8-6.4-25.7-19.1c-4.2-13.8,8.9-58.5,8.9-58.5
		c0-6.6,6.5-10.5,13.1-10.5h49.2c6.6,0,15,0.4,15,7c0,0,15.7,51.9,9.8,68.6C235.4,97.8,219.7,103.6,213.1,104.1z"/>
	<path class="st7" d="M223.6,14.9c2.6,2.3,8.8,12.3-12.9,12.3c-7.8,0-12.3,5.6-22.2,4.5c-8.3-0.9-27.4-2.6-33.5-3.9
		c-6.8-1.4-3.6-8.1,0-10.7c5-3.5,6.1,1.1,19.5-1c8.4-1.3,18.1-0.6,25.1-0.8C210.5,15.1,215.9,8.3,223.6,14.9z"/>
</g>
<g id="bubble">
	<circle class="st8" cx="143.8" cy="261.3" r="6.3"/>
</g>
<g id="bubble_copy">
	<circle class="st8" cx="188.8" cy="258.3" r="6.3"/>
</g>
<g id="bubble_copy_4">
</g>
<g id="bubble_copy_3">
	<circle class="st8" cx="178" cy="271.5" r="3.8"/>
	<circle class="st8" cx="200" cy="277.8" r="3.8"/>
	<circle class="st8" cx="159.1" cy="269.3" r="3.8"/>
</g>
<g id="bubble_copy_2">
	<circle class="st8" cx="166.8" cy="251" r="6.3"/>
</g>
<g id="potFront">
	<path class="st9" d="M325.8,190.9c0,0-10.3-2.7-14.4-2.7s-14.4,2.7-14.4,2.7v-18.1h28.8V190.9z M74.3,190.9c0,0,10.3-2.7,14.4-2.7
		c4.1,0,14.4,2.7,14.4,2.7v-18.1H74.3V190.9z"/>
	<path class="st10" d="M200,205.9c-46.7,0-84.5-2.7-84.5-6h-2v104H218v-98.1C212.2,205.9,206.2,205.9,200,205.9z"/>
	<path class="st2" d="M200,205.9c6.2,0,12.2,0,18-0.1v-5.8H115.5C115.5,203.2,153.3,205.9,200,205.9z"/>
	<path class="st11" d="M207.7,134.2v158.7h-69.1c-6.2,0-11.2-6.4-11.2-14.1V132.8v-3.5c-20-1.4-32.4-3.3-32.5-5.5
		c-2,0.3-3.5,9.2-3.5,11.1c0,1.9,9.2,11.1,11.1,11.1h0.9v152.3c0,10,8.2,18.1,18.1,18.1h157.5c10,0,18.1-8.2,18.1-18.1V146h0.9
		c2,0,11.1-9.2,11.1-11.1c0-1.9-1.7-11.1-3.7-11.1c0,4-43,7.3-97.6,7.6L207.7,134.2z"/>
</g>
<g id="dial_1_">
	<g id="dial_2_">
		<circle class="st12" cx="317.1" cy="354.2" r="18.4"/>
		<line class="st13" x1="317.1" y1="342.5" x2="317.1" y2="351.7"/>
	</g>
</g>
</svg>
