<?xml version="1.0" encoding="utf-8"?>
<!-- Generator: Adobe Illustrator 22.0.1, SVG Export Plug-In . SVG Version: 6.00 Build 0)  -->
<svg version="1.1" xmlns="http://www.w3.org/2000/svg" xmlns:xlink="http://www.w3.org/1999/xlink" x="0px" y="0px"
	 viewBox="0 0 400 400" style="enable-background:new 0 0 400 400;" xml:space="preserve">
<style type="text/css">
	.st0{fill:#FF8585;}
	.st1{fill:#CCCCCC;stroke:#000000;stroke-width:11.6512;stroke-linejoin:bevel;stroke-miterlimit:10;}
	.st2{fill:#FFFFFF;}
	.st3{fill:#CCCCCC;stroke:#000000;stroke-width:11.6512;stroke-linejoin:round;stroke-miterlimit:10;}
	.st4{fill:none;stroke:#000000;stroke-width:11.6512;stroke-linecap:round;stroke-linejoin:bevel;stroke-miterlimit:10;}
</style>
<g id="heat">
	<path class="st0" d="M296.3,263.7H103.7c-8.3,0-15-6.8-15-15v-9.4c0-8.3,6.8-15,15-15h192.5c8.3,0,15,6.8,15,15v9.4
		C311.3,256.9,304.5,263.7,296.3,263.7z"/>
</g>
<g id="pot">
	<path class="st1" d="M305.2,48.1H94.8c-2,0-3.6,9.2-3.6,11.1s9.2,11.1,11.1,11.1h0.9v152.3c0,10,8.2,18.1,18.1,18.1h157.5
		c10,0,18.1-8.2,18.1-18.1V70.3h0.9c2,0,11.1-9.2,11.1-11.1S307.2,48.1,305.2,48.1z"/>
	<path class="st2" d="M148.9,89.6h-26.3v117.1c0,8,5.2,14.6,11.6,14.6h14.6L148.9,89.6L148.9,89.6z"/>
	<path class="st3" d="M325.7,115.2c0,0-10.3-2.7-14.4-2.7s-14.4,2.7-14.4,2.7V97.1h28.8V115.2z M74.3,115.2c0,0,10.3-2.7,14.4-2.7
		c4.1,0,14.4,2.7,14.4,2.7V97.1H74.3V115.2z"/>
</g>
<g id="dial">
	<circle class="st1" cx="200" cy="342.5" r="41"/>
	<line class="st4" x1="200" y1="316.4" x2="200" y2="336.9"/>
</g>
</svg>
