<svg id="Layer_2_1_" 
	xmlns="http://www.w3.org/2000/svg" viewBox="0 0 400 400">

	<style>.st1{fill:#568139;stroke:#000;stroke-width:14;stroke-linecap:round;stroke-miterlimit:10}.st3{fill:#ffe8ae}</style>

  

    <!-- beer -->
    <g id="beer" transform="scale(0.5)">
        <animate attributeType="CSS" attributeName="opacity" 
           from="1" to="0" dur="5s" repeatCount="indefinite" />
        <path class="st0" d="M273.7 282.3c.6 7.3 3 22.7 4.3 29 1.3 6.3 7.3 21.3-7.3 32.7-14.7 11.3-60 20-93 19S110 352.7 101 340.3c-9-12.3 2.7-31.7 3-41 .3-9.3 2.3-129 2.3-129s65.3-77.7 164.3-38.7c.1.1.2 113.2 3.1 150.7z"/>
        <path class="st0" d="M272.4 255.5s24.6 10.7 22.9-38.5-1-55.3-24.5-58.5l-.1-26.8s20.3-9.3 34-.3 21 18.3 21 32v87.3s-.3 19-17.3 29.7-34.6 4.1-34.6 4.1l-1.4-29z"/>
        <path class="st1" d="M191 180.5V295M240.3 174.1l7 115M141.7 174.1l-7 115"/>
        <path d="M284.3 80c8.1 5.7 11.1 32.3.1 37.7-12.7 6.2-11.5 34-27.8 26.6-14.1-6.3-11.2-7.7-21.8 1.4-16 13.6-20-12-38.8 7.5-11.2 11.6-17.8-12.5-21.8 5.2s-8.8 30.7-16.4 19.7-12.9.9-14.5 19.5-3.4 40.1-13 38.4-18.1-22.6-18.7-36c-1-22-13.8-14-13.7-26.3.1-12.3 4.7-17.3-6.9-17-16.1.5-23-8.4-22.3-27.1.7-18.7-3.6-34.8 6.4-42.6 8.5-6.6 6.3-26.7 18.8-30.5 18.6-5.7 16.1-13.4 30.5-20.5 24.8-12.3 37.1-4.7 68.3-4.7 30.8.1 28.8-18.4 55-.3 15.3 10.5 3.3 19.8 25 20.8S274.3 73 284.3 80z" fill="#fff" stroke="#000" stroke-width="14" stroke-miterlimit="10"/>
        <path class="st1" d="M104.7 308.7s36.7 26.7 114 14M220.5 91.2c7-9.9 20.7-12.3 30.6-5.4 6 4.2 9.3 11 9.4 17.8M195.4 67.1c7-9.9 20.7-12.3 30.6-5.4 6 4.2 9.3 11 9.4 17.8M101.8 122.8c-4.4-11.3 1.2-24 12.5-28.4 6.9-2.7 14.3-1.7 20 2.1M122.5 89.4c-3.7-11.6 2.7-23.9 14.3-27.6 7-2.2 14.4-.7 19.8 3.4"/>
    </g>

    <!-- yeast -->
    <g id="yeast" transform='scale(0.5),translate(400 400)'>
        <path class="st3" d="M179.6 99.3c-5 0-9.7-2.2-12.9-5.9-3-3.5-4.4-7.8-4-12.4.4-4.5 2.4-8.6 5.9-11.6L202 40.8c3.1-2.6 7-4.1 11-4.1 5 0 9.7 2.2 12.9 6 3 3.5 4.4 7.9 4 12.5-.4 4.5-2.5 8.6-6 11.5l-33.3 28.5c-3 2.7-7 4.1-11 4.1z"/>
		<path d="M213 43.7c2.8 0 5.6 1.2 7.6 3.5 3.6 4.2 3.1 10.6-1.1 14.1l-33.4 28.6c-1.9 1.6-4.2 2.4-6.5 2.4-2.8 0-5.6-1.2-7.6-3.5-3.6-4.2-3.1-10.5 1.1-14.1l33.4-28.6c1.9-1.6 4.2-2.4 6.5-2.4m0-14c-5.7 0-11.3 2.1-15.6 5.8L164 64.1c-4.9 4.2-7.8 10-8.3 16.4-.5 6.4 1.5 12.6 5.7 17.5 4.6 5.3 11.2 8.4 18.2 8.4 5.7 0 11.3-2.1 15.6-5.8L228.5 72c4.9-4.1 7.8-9.9 8.4-16.2.5-6.5-1.5-12.7-5.7-17.7-4.6-5.3-11.2-8.4-18.2-8.4z"/>
		<path class="st3" d="M252.2 165.4c-3.9 0-7.8-1.4-10.7-3.9l-34-27.9c-7.2-5.9-8.3-16.6-2.4-23.9 3.2-4 8-6.3 13.2-6.3 3.9 0 7.7 1.4 10.8 3.8l34 27.9c7.2 5.9 8.3 16.6 2.4 23.9-3.4 4.1-8.2 6.4-13.3 6.4z"/>
		<path d="M218.3 110.5c2.2 0 4.5.7 6.4 2.3l34 27.9c4.3 3.5 4.9 9.8 1.4 14.1-2 2.4-4.9 3.6-7.8 3.6-2.2 0-4.5-.7-6.3-2.2l-34-27.9c-4.3-3.5-4.9-9.8-1.4-14.1 1.9-2.5 4.8-3.7 7.7-3.7m0-14c-7.2 0-14 3.2-18.6 8.8-8.4 10.3-6.8 25.4 3.4 33.8l34 27.9c4.2 3.5 9.6 5.4 15.2 5.4 7.2 0 14-3.2 18.6-8.7l.1-.1.1-.1c4-5 5.9-11.2 5.3-17.6-.6-6.4-3.7-12.2-8.7-16.2l-34-27.9c-4.5-3.4-9.9-5.3-15.4-5.3z"/>
		<path class="st3" d="M119 228.9c-.8 0-1.7-.1-2.5-.2l-43.6-6.8c-4.4-.7-8.4-3.1-11.1-6.8-2.7-3.7-3.8-8.2-3-12.6 1.2-8.2 8.4-14.3 16.7-14.3.9 0 1.8.1 2.7.2l43.4 6.8c4.4.7 8.4 3.1 11.1 6.8 2.7 3.7 3.8 8.2 3 12.7-1.3 8.2-8.3 14.2-16.7 14.2z"/>
		<path d="M75.5 195.2c.5 0 1.1 0 1.6.1l43.5 6.8c5.4.8 9.2 6 8.3 11.4-.8 4.9-5.1 8.4-9.9 8.4-.5 0-1 0-1.5-.1L74 215c-5.4-.8-9.2-6-8.3-11.4.7-4.8 5-8.4 9.8-8.4m0-14c-11.7 0-21.9 8.7-23.6 20.3-1 6.3.5 12.6 4.3 17.8 3.7 5.1 9.5 8.6 15.7 9.6l43.5 6.8h.2c1.2.2 2.3.3 3.5.3 11.8 0 21.8-8.5 23.7-20.1 1.1-6.3-.5-12.7-4.3-18-3.7-5.1-9.5-8.6-15.7-9.6l-43.4-6.8c-1.3-.2-2.6-.3-3.9-.3z"/>
		<path class="st3" d="M157.3 229.8c-7 0-13.4-4.3-15.9-10.8-3.4-8.7.9-18.6 9.7-22.1l41-16c2-.8 4-1.2 6.1-1.2 7 0 13.4 4.3 15.9 10.8 3.4 8.7-.9 18.6-9.7 22.1l-41 16c-1.9.8-4 1.2-6.1 1.2z"/>
		<path d="M198.2 186.7c4 0 7.9 2.4 9.4 6.4 2 5.1-.6 11-5.7 13l-41 16c-1.2.5-2.4.7-3.6.7-4 0-7.9-2.4-9.4-6.4-2-5.1.6-11 5.7-13l41-16c1.2-.4 2.4-.7 3.6-.7m0-14c-3 0-5.9.6-8.7 1.6l-41 16c-12.4 4.9-18.5 18.8-13.6 31.2 3.6 9.1 12.6 15.3 22.5 15.3 3 0 5.9-.6 8.7-1.6l41-16c12.4-4.9 18.5-18.8 13.6-31.2-3.7-9.1-12.7-15.3-22.5-15.3z"/>
		<path class="st3" d="M225.9 287c-2.9 0-5.8-.8-8.4-2.2l-.1-.1c-8-4.7-10.8-15.1-6.3-23.2l22-38.2c2.9-5.2 8.6-8.5 14.8-8.5 2.9 0 5.9.8 8.4 2.2l.1.1c8 4.7 10.8 15.1 6.3 23.2l-22 38.2c-3.1 5.3-8.8 8.5-14.8 8.5z"/>
		<path d="M247.9 221.9c1.7 0 3.4.4 5 1.3 4.8 2.8 6.4 8.9 3.7 13.7l-22 38.1c-1.9 3.2-5.3 5-8.7 5-1.7 0-3.4-.4-5-1.3-4.8-2.8-6.4-8.9-3.7-13.7l22-38.1c1.8-3.2 5.2-5 8.7-5m0-14c-8.6 0-16.6 4.6-20.9 12.1l-22 38v.2c-6.4 11.4-2.5 26.1 8.8 32.7l.1.1.1.1c3.6 2 7.7 3.1 11.8 3.1 8.5 0 16.5-4.6 20.8-12l22-38.1v-.2c6.4-11.4 2.5-26.1-8.8-32.7l-.1-.1-.1-.1c-3.5-2-7.6-3.1-11.7-3.1z"/>
		<path class="st3" d="M202.6 363.3c-1.5 0-2.9-.2-4.3-.6-4.4-1.2-8-4-10.3-7.9-2.3-3.9-2.9-8.5-1.8-12.9l11.2-42.5c2-7.4 8.7-12.6 16.4-12.6 1.5 0 2.9.2 4.3.6 4.4 1.2 8 4 10.3 7.9 2.3 3.9 2.9 8.5 1.8 12.9L219 350.7c-1.9 7.4-8.7 12.6-16.4 12.6z"/>
		<path d="M213.9 293.8c.8 0 1.7.1 2.5.3 5.3 1.4 8.5 6.9 7.1 12.2l-11.2 42.5c-1.2 4.5-5.3 7.4-9.7 7.4-.8 0-1.7-.1-2.5-.3-5.3-1.4-8.5-6.9-7.1-12.2l11.2-42.5c1.2-4.4 5.3-7.4 9.7-7.4m0-14c-10.9 0-20.4 7.3-23.2 17.9l-11.2 42.5c-1.6 6.2-.8 12.6 2.5 18.2 3.2 5.5 8.4 9.5 14.6 11.1 2 .5 4 .8 6.1.8 10.9 0 20.4-7.3 23.2-17.9l11.2-42.5c1.6-6.2.8-12.6-2.5-18.2-3.2-5.5-8.4-9.5-14.6-11.1-2-.5-4.1-.8-6.1-.8z"/>
		<path class="st3" d="M324.4 202.2c-1.7 0-3.3-.2-4.9-.7l-42.1-12.7c-9-2.7-14.1-12.2-11.4-21.2 2.2-7.1 8.9-12.1 16.3-12.1 1.7 0 3.3.2 4.9.7l42.1 12.7c4.4 1.3 7.9 4.2 10.1 8.3 2.1 4 2.6 8.6 1.3 13-2.2 7-8.9 12-16.3 12z"/>
		<path d="M282.3 162.4c1 0 1.9.1 2.9.4l42.1 12.7c5.3 1.6 8.3 7.2 6.7 12.5-1.3 4.3-5.3 7.1-9.6 7.1-1 0-1.9-.1-2.9-.4L279.4 182c-5.3-1.6-8.3-7.2-6.7-12.5 1.3-4.3 5.3-7.1 9.6-7.1m0-14c-10.7 0-19.9 6.9-23 17.1-3.8 12.7 3.4 26.1 16.1 29.9l42.1 12.7c2.3.7 4.6 1 6.9 1 10.7 0 19.9-6.9 23-17.1 3.8-12.7-3.4-26.1-16.1-29.9l-42.1-12.7c-2.2-.6-4.6-1-6.9-1z"/>
		<g>
			<path class="st3" d="M113.5 153.7c-4.6 0-8.9-1.8-12-5-3.2-3.2-4.9-7.5-4.9-12.1 0-4.5 1.8-8.8 5-11.9l31-31c3.2-3.2 7.5-5 12-5 4.6 0 8.8 1.8 12 5 3.2 3.1 4.9 7.3 5 11.9 0 4.6-1.7 8.9-5 12.1l-31.1 31.1c-3.2 3.1-7.5 4.9-12 4.9z"/>
			<path d="M144.6 95.6c2.6 0 5.1 1 7 2.9 3.9 3.8 3.9 10.2 0 14.1l-31.1 31.1c-1.9 1.9-4.5 2.9-7.1 2.9s-5.1-1-7-2.9c-3.9-3.9-3.9-10.3 0-14.1l31.1-31.1c2-1.9 4.6-2.9 7.1-2.9m0-14c-6.4 0-12.5 2.5-17 7l-31 31c-4.5 4.4-7 10.4-7.1 16.8 0 6.5 2.4 12.5 7 17.1 4.5 4.6 10.5 7.1 17 7.1 6.4 0 12.5-2.5 17-7l31.1-31.1c4.6-4.6 7.1-10.7 7-17.1 0-6.4-2.5-12.3-7-16.8s-10.5-7-17-7z"/>
		</g>
    </g>

    <!-- grain -->
    <g id="grain" transform="scale(0.5)">
        <path class="st0" d="M154.8 106.2c11.8 14.9 9.3 36.6-5.7 48.3-15 11.8-36.6 9.3-48.3-5.7C89 133.9 88.5 77.7 88.5 77.7s54.5 13.6 66.3 28.5z"/>
        <path d="M279.1 296.2s21.6 0 64 69.3" fill="none" stroke="#000" stroke-width="12.941" stroke-linecap="round" stroke-miterlimit="10"/>
        <path class="st0" d="M215.2 159.1c0 19-15.4 34.4-34.4 34.4s-34.4-15.4-34.4-34.4c-.1-19 34.4-63.5 34.4-63.5s34.4 44.5 34.4 63.5z"/>
        <path class="st0" d="M136 136c17.9 6.4 27.3 26.1 20.8 44s-26.1 27.3-44 20.8C94.9 194.4 64.7 147 64.7 147s53.4-17.4 71.3-11z"/>
        <path class="st0" d="M141.6 236.5c18.7 3.5 36.7-8.9 40.1-27.5 3.5-18.7-8.9-36.7-27.5-40.1-18.7-3.5-68.8 22.2-68.8 22.2s37.5 41.9 56.2 45.4z"/>
        <path class="st0" d="M251.1 195.1c0 19-15.4 34.4-34.4 34.4s-34.4-15.4-34.4-34.4 34.4-63.5 34.4-63.5 34.4 44.5 34.4 63.5z"/>
        <path class="st0" d="M180.9 273.9c18.9 1.2 35.3-13.2 36.5-32.2 1.2-18.9-13.2-35.3-32.2-36.5s-65.5 30.3-65.5 30.3 42.1 37.2 61.2 38.4z"/>
        <path class="st0" d="M286.4 230.4c0 19-15.4 34.4-34.4 34.4s-34.4-15.4-34.4-34.4 34.4-63.5 34.4-63.5 34.4 44.5 34.4 63.5z"/>
        <path class="st0" d="M222 309.7c19 0 34.4-15.4 34.4-34.4S241 240.9 222 240.9s-63.5 34.4-63.5 34.4 44.5 34.4 63.5 34.4z"/>
        <path class="st0" d="M322.4 266.4c0 19-15.4 34.4-34.4 34.4s-34.4-15.4-34.4-34.4 34.4-63.5 34.4-63.5 34.4 44.4 34.4 63.5z"/>
        <path class="st0" d="M257.9 345.7c19 0 34.4-15.4 34.4-34.4s-15.4-34.4-34.4-34.4-63.5 34.4-63.5 34.4 44.6 34.4 63.5 34.4z"/>
    </g>

    <!-- yeast -->
    <g id="yeast" transform="scale(0.5)">
        <path d="M200 345.4c-60.2 0-109.2-53-109.2-118.2 0-56.7 86.9-147.2 104.3-164.8l5-5 5 5C222.5 80 309.4 170.5 309.4 227.2c-.2 65.1-49.2 118.2-109.4 118.2z" fill="#7dc1ff" stroke="#000" stroke-width="14" stroke-miterlimit="10"/>
	    <path d="M134 227s-4 26 21 56" fill="none" stroke="#000" stroke-width="14" stroke-linecap="round" stroke-miterlimit="10"/>
    </g>

    <!-- hop -->
    <g id="hop" transform="scale(0.5)">
        <path d="M321 74.9s-6 14-37 40" fill="none" stroke="#000" stroke-width="14" stroke-linecap="round" stroke-miterlimit="10"/>
        <path class="st1" d="M106 228.9s-40 34-25 91c0 0 50 12 92-28 0 0 67-119-67-63z"/>
        <path class="st1" d="M119.5 174.4c-18.4 9.6-41 19-47 77 0 0 34.5 27.5 97.5-17.5 65.7-46.9-16.1-77.5-50.5-59.5z"/>
        <path class="st1" d="M227.5 281.4c-11.8 17.1-31.4 41.9-79 44 0 0-33.2-38.9 22.5-97.5s78.6 21.6 56.5 53.5z"/>
        <path class="st1" d="M158 174.9s-40 34-25 91c0 0 50 12 92-28 0 0 67-119-67-63z"/>
        <path class="st1" d="M151 107.9c-18.4 9.6-48 21-56 68 0 0 39 38 104-10s-13.6-76-48-58zM292 246.9c-9.6 18.4-24.1 48.9-71 57.1 0 0-38.1-38.9 9.7-104s79.2 12.5 61.3 46.9z"/>
        <path class="st1" d="M290.5 113.4s76.9 63.3 9 145c0 0-28.3-18.5-42-56 0 0-40.2 4.8-55.8-5.8l-.2-.2c-10-16-6-57-6-57-37-15-54-39-54-39 84-65 149 13 149 13z"/>
    </g>
</svg>