<svg id="Layer_1" 
	xmlns="http://www.w3.org/2000/svg" viewBox="0 0 400 400">
	<style>.st0{fill:#f5c623;stroke:#000;stroke-width:12.9412;stroke-linecap:round;stroke-miterlimit:10}</style>
	<path class="st0" d="M154.8 106.2c11.8 14.9 9.3 36.6-5.7 48.3-15 11.8-36.6 9.3-48.3-5.7C89 133.9 88.5 77.7 88.5 77.7s54.5 13.6 66.3 28.5z"/>
	<path d="M279.1 296.2s21.6 0 64 69.3" fill="none" stroke="#000" stroke-width="12.941" stroke-linecap="round" stroke-miterlimit="10"/>
	<path class="st0" d="M215.2 159.1c0 19-15.4 34.4-34.4 34.4s-34.4-15.4-34.4-34.4c-.1-19 34.4-63.5 34.4-63.5s34.4 44.5 34.4 63.5z"/>
	<path class="st0" d="M136 136c17.9 6.4 27.3 26.1 20.8 44s-26.1 27.3-44 20.8C94.9 194.4 64.7 147 64.7 147s53.4-17.4 71.3-11z"/>
	<path class="st0" d="M141.6 236.5c18.7 3.5 36.7-8.9 40.1-27.5 3.5-18.7-8.9-36.7-27.5-40.1-18.7-3.5-68.8 22.2-68.8 22.2s37.5 41.9 56.2 45.4z"/>
	<path class="st0" d="M251.1 195.1c0 19-15.4 34.4-34.4 34.4s-34.4-15.4-34.4-34.4 34.4-63.5 34.4-63.5 34.4 44.5 34.4 63.5z"/>
	<path class="st0" d="M180.9 273.9c18.9 1.2 35.3-13.2 36.5-32.2 1.2-18.9-13.2-35.3-32.2-36.5s-65.5 30.3-65.5 30.3 42.1 37.2 61.2 38.4z"/>
	<path class="st0" d="M286.4 230.4c0 19-15.4 34.4-34.4 34.4s-34.4-15.4-34.4-34.4 34.4-63.5 34.4-63.5 34.4 44.5 34.4 63.5z"/>
	<path class="st0" d="M222 309.7c19 0 34.4-15.4 34.4-34.4S241 240.9 222 240.9s-63.5 34.4-63.5 34.4 44.5 34.4 63.5 34.4z"/>
	<path class="st0" d="M322.4 266.4c0 19-15.4 34.4-34.4 34.4s-34.4-15.4-34.4-34.4 34.4-63.5 34.4-63.5 34.4 44.4 34.4 63.5z"/>
	<path class="st0" d="M257.9 345.7c19 0 34.4-15.4 34.4-34.4s-15.4-34.4-34.4-34.4-63.5 34.4-63.5 34.4 44.6 34.4 63.5 34.4z"/>
</svg>