<?xml version="1.0" encoding="utf-8"?>
<!-- Generator: Adobe Illustrator 22.0.1, SVG Export Plug-In . SVG Version: 6.00 Build 0)  -->
<svg version="1.1" id="Layer_2_1_" xmlns="http://www.w3.org/2000/svg" xmlns:xlink="http://www.w3.org/1999/xlink" x="0px" y="0px"
	 viewBox="0 0 400 400" style="enable-background:new 0 0 400 400;" xml:space="preserve">
<style type="text/css">
	.st0{fill:none;stroke:#000000;stroke-width:14;stroke-linecap:round;stroke-miterlimit:10;}
	.st1{fill:#568139;stroke:#000000;stroke-width:14;stroke-linecap:round;stroke-miterlimit:10;}
</style>
<g>
	<path class="st0" d="M321,74.9c0,0-6,14-37,40"/>
	<path class="st1" d="M106,228.9c0,0-40,34-25,91c0,0,50,12,92-28C173,291.9,240,172.9,106,228.9z"/>
	<path class="st1" d="M119.5,174.4c-18.4,9.6-41,19-47,77c0,0,34.5,27.5,97.5-17.5C235.7,187,153.9,156.4,119.5,174.4z"/>
	<path class="st1" d="M227.5,281.4c-11.8,17.1-31.4,41.9-79,44c0,0-33.2-38.9,22.5-97.5S249.6,249.5,227.5,281.4z"/>
	<path class="st1" d="M158,174.9c0,0-40,34-25,91c0,0,50,12,92-28C225,237.9,292,118.9,158,174.9z"/>
	<path class="st1" d="M151,107.9c-18.4,9.6-48,21-56,68c0,0,39,38,104-10S185.4,89.9,151,107.9z"/>
	<path class="st1" d="M292,246.9c-9.6,18.4-24.1,48.9-71,57.1c0,0-38.1-38.9,9.7-104S309.9,212.5,292,246.9z"/>
	<path class="st1" d="M290.5,113.4c0,0,76.9,63.3,9,145c0,0-28.3-18.5-42-56c0,0-40.2,4.8-55.8-5.8l-0.2-0.2c-10-16-6-57-6-57
		c-37-15-54-39-54-39C225.5,35.4,290.5,113.4,290.5,113.4z"/>
</g>
</svg>
