<svg id="Layer_1" 
	xmlns="http://www.w3.org/2000/svg" viewBox="0 0 635.5 188.6">
	<style>.st0{fill:none;stroke:#000;stroke-linecap:round;stroke-miterlimit:10}</style>
	<path class="st0" d="M611.8 76.7s-16.8 36.9-19 49.4-2.5 28.8-1.5 36.5 4.5 23-33.5 18-58.5-12-52.8-32.8 18.5-84 21.3-98.3 18.5-2.5 35.3 1.5 44.8 11.3 46.5 17.5c1.7 6.2 8.8 17.3 11.5 11.8s4.8-11 10.3-13.3 7.3-2.3 2-14.8-1-22.8-12.3-29.8-42.8-24-47.3-19.2-3.8 6.3-6.5 6"/>
	<path class="st0" d="M593.6 60.2s-14.1 43.6-15 51.1 1.7 6.2-2 12.8-4.7 22.4-10.1 24.9c-5.4 2.5 1.3 11.9-1.6 15.6-2.3 2.9-.3 16.4-13.6 15.2"/>
	<path class="st0" d="M591.7 165.7s-.7 4.5-9.2 3.2-20.5-3.8-33.2-7.8-32.3-11.1-37.7-14.5c-5.4-3.4-4.4-7.2-3.3-11.8m12.2 15.9s17.7-71.5 22.3-83.2m16.7 4.7s-.3 13.8-4.5 11 2.1 8.1-1.2 17.3c-5.4 15 13.3 12.3 5.4 13.2-7.6.9-16.3 2.4-13.4 7.1 2.9 4.7-.2 14.5-1.7 16.7m-19.8-78.1s-2.3 8.9-9.9 14c-7.6 5.1-21.7 20.7-19.5 41.5s10.8 15.9 10.8 30.2M542.8 1.4c-3.8-.5-12.5-4-12 7.8s1.5 9.8-12.3 7.7m-12.7-.5s-4.2-.3-2.5 5.3 6.3 12.5 7.7 14.5M23.7 76.7s16.8 36.9 19 49.4c2.2 12.5 2.5 28.8 1.5 36.5s-4.5 23 33.5 18 58.5-12 52.8-32.8-18.5-84-21.3-98.3S90.7 47 73.9 51 29.2 62.4 27.5 68.7 18.7 86 16 80.5s-4.8-11-10.3-13.3-7.3-2.3-2-14.8 1-22.8 12.3-29.8S58.8-1.7 63.3 3.1s3.8 6.3 6.5 6"/>
	<path class="st0" d="M41.9 60.2s14.1 43.6 15 51.1-1.7 6.2 2 12.8S63.6 146.5 69 149s-1.3 11.9 1.6 15.6c2.3 2.9.3 16.4 13.6 15.2"/>
	<path class="st0" d="M43.8 165.7s.7 4.5 9.2 3.2 20.5-3.8 33.2-7.8 32.3-11.1 37.7-14.5c5.4-3.4 4.4-7.2 3.3-11.8M115 150.7S97.3 79.2 92.7 67.5M76 72.2s.3 13.8 4.5 11-2.1 8.1 1.2 17.3c5.4 15-13.3 12.3-5.4 13.2 7.6.9 16.3 2.4 13.4 7.1-2.9 4.7.2 14.5 1.7 16.7m19.7-78.1s2.3 8.9 9.9 14 21.7 20.7 19.5 41.5c-2.2 20.8-10.8 15.9-10.8 30.2M92.7 1.4c3.8-.5 12.5-4 12 7.8s-1.5 9.8 12.3 7.7m12.7-.5s4.2-.3 2.5 5.3-6.3 12.5-7.7 14.5"/>
	<path class="st0" d="M494.7 104.9s-44.7 1.5-64.7 1-103.8-4.3-118.5-3.7c-14.7.6-37.8 5.9-99.8 3.8s-70.9-1.1-70.9-1.1m143.7-.2s-43.8 63.4-44.1 83.4m-11.5-81.7s25 58.1 45.7 81.7"/>
	<path class="st0" d="M342.6 102.7s29.7 28.8 48.3 42.4c18.6 13.6 38.3 39.6 38.3 39.6m-18.9-79.5S391 157.5 374 181.6M362.8 48.7c9.4-2.7 20.5-2.8 26.7 2.3s12.5 10.7 5 19.2-25.5 15.7-37.8 4.5c-12.4-11.2-5.6-22.6 6.1-26z"/>
	<path class="st0" d="M368 56.4c-2.4-.9 2.7-3.2 3.2-2s1.1 3.7-3.2 2zm11.3 0c-1.1-.1-2.4 1.6-1.5 2.2 1 .6 5.7-1.9 1.5-2.2zm9 9s-5.6 9.6-12.6 7.5-10.4-5.6-13.8-7.5M240.5 47.9c3.8-6.4 17.1-14.5 29.3-5.5s18.6 18.3 13.6 29.4-17.4 24.6-32.3 20.1c-14.9-4.5-28-15.1-10.6-44z"/>
	<path class="st0" d="M251.2 55.5c.3-3.3 3.6-1.3 4.5 0 .8 1.3-5 4.8-4.5 0zm12.3 0c.9-2 4.1-1.4 4.8.3.7 1.7-7.1 4.7-4.8-.3zm12.7 3.2s-6.3 22-12.5 22.9c-6.2.9-9 3.3-18-5.6"/>
</svg>