<svg id="Layer_3" 
	xmlns="http://www.w3.org/2000/svg" viewBox="0 0 400 400">
	<style>.st2{fill:#ccc;stroke:#000;stroke-width:15.2227;stroke-linejoin:round;stroke-miterlimit:10}</style>
	<path d="M326.4 84.3H73.6c-2.4 0-4.3 11-4.3 13.3s11 13.3 13.3 13.3h1.1v183c0 12 9.8 21.7 21.7 21.7h189.2c12 0 21.7-9.8 21.7-21.7V111h1.1c2.4 0 13.3-11 13.3-13.3s-1.9-13.4-4.3-13.4z" fill="#ccc" stroke="#000" stroke-width="15.223" stroke-miterlimit="10"/>
	<path d="M138.6 134.1H107v140.7c0 9.6 6.3 17.5 13.9 17.5h17.6V134.1z" fill="#fff"/>
	<path class="st2" d="M351 164.9s-12.4-3.2-17.3-3.2-17.3 3.2-17.3 3.2v-21.8H351v21.8zM49 164.9s12.4-3.2 17.3-3.2 17.3 3.2 17.3 3.2v-21.8H49v21.8z"/>
</svg>