<?xml version="1.0" encoding="utf-8"?>
<!-- Generator: Adobe Illustrator 22.0.1, SVG Export Plug-In . SVG Version: 6.00 Build 0)  -->
<svg version="1.1" id="Layer_1" xmlns="http://www.w3.org/2000/svg" xmlns:xlink="http://www.w3.org/1999/xlink" x="0px" y="0px"
	 viewBox="0 0 400 400" style="enable-background:new 0 0 400 400;" xml:space="preserve">
<style type="text/css">
	.st0{fill:#FFE8AE;}
</style>
<path class="st0" d="M179.6,99.3c-5,0-9.7-2.2-12.9-5.9c-3-3.5-4.4-7.8-4-12.4c0.4-4.5,2.4-8.6,5.9-11.6L202,40.8
	c3.1-2.6,7-4.1,11-4.1c5,0,9.7,2.2,12.9,6c3,3.5,4.4,7.9,4,12.5c-0.4,4.5-2.5,8.6-6,11.5l-33.3,28.5
	C187.6,97.9,183.6,99.3,179.6,99.3L179.6,99.3z"/>
<path d="M213,43.7c2.8,0,5.6,1.2,7.6,3.5c3.6,4.2,3.1,10.6-1.1,14.1l-33.4,28.6c-1.9,1.6-4.2,2.4-6.5,2.4c-2.8,0-5.6-1.2-7.6-3.5
	c-3.6-4.2-3.1-10.5,1.1-14.1l33.4-28.6C208.4,44.5,210.7,43.7,213,43.7 M213,29.7c-5.7,0-11.3,2.1-15.6,5.8L164,64.1
	c-4.9,4.2-7.8,10-8.3,16.4s1.5,12.6,5.7,17.5c4.6,5.3,11.2,8.4,18.2,8.4c5.7,0,11.3-2.1,15.6-5.8L228.5,72c4.9-4.1,7.8-9.9,8.4-16.2
	c0.5-6.5-1.5-12.7-5.7-17.7C226.6,32.8,220,29.7,213,29.7z"/>
<path class="st0" d="M252.2,165.4c-3.9,0-7.8-1.4-10.7-3.9l-34-27.9c-7.2-5.9-8.3-16.6-2.4-23.9c3.2-4,8-6.3,13.2-6.3
	c3.9,0,7.7,1.4,10.8,3.8l34,27.9c7.2,5.9,8.3,16.6,2.4,23.9C262.1,163.1,257.3,165.4,252.2,165.4z"/>
<path d="M218.3,110.5c2.2,0,4.5,0.7,6.4,2.3l34,27.9c4.3,3.5,4.9,9.8,1.4,14.1c-2,2.4-4.9,3.6-7.8,3.6c-2.2,0-4.5-0.7-6.3-2.2
	l-34-27.9c-4.3-3.5-4.9-9.8-1.4-14.1C212.5,111.7,215.4,110.5,218.3,110.5 M218.3,96.5c-7.2,0-14,3.2-18.6,8.8
	c-8.4,10.3-6.8,25.4,3.4,33.8l34,27.9c4.2,3.5,9.6,5.4,15.2,5.4c7.2,0,14-3.2,18.6-8.7l0.1-0.1l0.1-0.1c4-5,5.9-11.2,5.3-17.6
	c-0.6-6.4-3.7-12.2-8.7-16.2l-34-27.9C229.2,98.4,223.8,96.5,218.3,96.5L218.3,96.5z"/>
<path class="st0" d="M119,228.9c-0.8,0-1.7-0.1-2.5-0.2l-43.6-6.8c-4.4-0.7-8.4-3.1-11.1-6.8c-2.7-3.7-3.8-8.2-3-12.6
	c1.2-8.2,8.4-14.3,16.7-14.3c0.9,0,1.8,0.1,2.7,0.2l43.4,6.8c4.4,0.7,8.4,3.1,11.1,6.8s3.8,8.2,3,12.7
	C134.4,222.9,127.4,228.9,119,228.9L119,228.9z"/>
<path d="M75.5,195.2c0.5,0,1.1,0,1.6,0.1l43.5,6.8c5.4,0.8,9.2,6,8.3,11.4c-0.8,4.9-5.1,8.4-9.9,8.4c-0.5,0-1,0-1.5-0.1L74,215
	c-5.4-0.8-9.2-6-8.3-11.4C66.4,198.8,70.7,195.2,75.5,195.2 M75.5,181.2c-11.7,0-21.9,8.7-23.6,20.3c-1,6.3,0.5,12.6,4.3,17.8
	c3.7,5.1,9.5,8.6,15.7,9.6l43.5,6.8h0.2c1.2,0.2,2.3,0.3,3.5,0.3c11.8,0,21.8-8.5,23.7-20.1c1.1-6.3-0.5-12.7-4.3-18
	c-3.7-5.1-9.5-8.6-15.7-9.6l-43.4-6.8C78.1,181.3,76.8,181.2,75.5,181.2z"/>
<path class="st0" d="M157.3,229.8c-7,0-13.4-4.3-15.9-10.8c-3.4-8.7,0.9-18.6,9.7-22.1l41-16c2-0.8,4-1.2,6.1-1.2
	c7,0,13.4,4.3,15.9,10.8c3.4,8.7-0.9,18.6-9.7,22.1l-41,16C161.5,229.4,159.4,229.8,157.3,229.8z"/>
<path d="M198.2,186.7c4,0,7.9,2.4,9.4,6.4c2,5.1-0.6,11-5.7,13l-41,16c-1.2,0.5-2.4,0.7-3.6,0.7c-4,0-7.9-2.4-9.4-6.4
	c-2-5.1,0.6-11,5.7-13l41-16C195.8,187,197,186.7,198.2,186.7 M198.2,172.7c-3,0-5.9,0.6-8.7,1.6l-41,16
	c-12.4,4.9-18.5,18.8-13.6,31.2c3.6,9.1,12.6,15.3,22.5,15.3c3,0,5.9-0.6,8.7-1.6l41-16c12.4-4.9,18.5-18.8,13.6-31.2
	C217,178.9,208,172.7,198.2,172.7z"/>
<g>
	<path class="st0" d="M225.9,287c-2.9,0-5.8-0.8-8.4-2.2l-0.1-0.1c-8-4.7-10.8-15.1-6.3-23.2l22-38.2c2.9-5.2,8.6-8.5,14.8-8.5
		c2.9,0,5.9,0.8,8.4,2.2l0.1,0.1c8,4.7,10.8,15.1,6.3,23.2l-22,38.2C237.6,283.8,231.9,287,225.9,287L225.9,287z"/>
	<path d="M247.9,221.9c1.7,0,3.4,0.4,5,1.3c4.8,2.8,6.4,8.9,3.7,13.7l-22,38.1c-1.9,3.2-5.3,5-8.7,5c-1.7,0-3.4-0.4-5-1.3
		c-4.8-2.8-6.4-8.9-3.7-13.7l22-38.1C241,223.7,244.4,221.9,247.9,221.9 M247.9,207.9c-8.6,0-16.6,4.6-20.9,12.1l-22,38v0.2
		c-6.4,11.4-2.5,26.1,8.8,32.7l0.1,0.1l0.1,0.1c3.6,2,7.7,3.1,11.8,3.1c8.5,0,16.5-4.6,20.8-12l22-38.1v-0.2
		c6.4-11.4,2.5-26.1-8.8-32.7l-0.1-0.1l-0.1-0.1C256.1,209,252,207.9,247.9,207.9L247.9,207.9z"/>
</g>
<g>
	<path class="st0" d="M202.6,363.3c-1.5,0-2.9-0.2-4.3-0.6c-4.4-1.2-8-4-10.3-7.9s-2.9-8.5-1.8-12.9l11.2-42.5
		c2-7.4,8.7-12.6,16.4-12.6c1.5,0,2.9,0.2,4.3,0.6c4.4,1.2,8,4,10.3,7.9s2.9,8.5,1.8,12.9L219,350.7
		C217.1,358.1,210.3,363.3,202.6,363.3L202.6,363.3z"/>
	<path d="M213.9,293.8c0.8,0,1.7,0.1,2.5,0.3c5.3,1.4,8.5,6.9,7.1,12.2l-11.2,42.5c-1.2,4.5-5.3,7.4-9.7,7.4c-0.8,0-1.7-0.1-2.5-0.3
		c-5.3-1.4-8.5-6.9-7.1-12.2l11.2-42.5C205.4,296.8,209.5,293.8,213.9,293.8 M213.9,279.8c-10.9,0-20.4,7.3-23.2,17.9l-11.2,42.5
		c-1.6,6.2-0.8,12.6,2.5,18.2c3.2,5.5,8.4,9.5,14.6,11.1c2,0.5,4,0.8,6.1,0.8c10.9,0,20.4-7.3,23.2-17.9l11.2-42.5
		c1.6-6.2,0.8-12.6-2.5-18.2c-3.2-5.5-8.4-9.5-14.6-11.1C218,280.1,215.9,279.8,213.9,279.8z"/>
</g>
<g>
	<path class="st0" d="M324.4,202.2c-1.7,0-3.3-0.2-4.9-0.7l-42.1-12.7c-9-2.7-14.1-12.2-11.4-21.2c2.2-7.1,8.9-12.1,16.3-12.1
		c1.7,0,3.3,0.2,4.9,0.7l42.1,12.7c4.4,1.3,7.9,4.2,10.1,8.3c2.1,4,2.6,8.6,1.3,13C338.5,197.2,331.8,202.2,324.4,202.2z"/>
	<path d="M282.3,162.4c1,0,1.9,0.1,2.9,0.4l42.1,12.7c5.3,1.6,8.3,7.2,6.7,12.5c-1.3,4.3-5.3,7.1-9.6,7.1c-1,0-1.9-0.1-2.9-0.4
		L279.4,182c-5.3-1.6-8.3-7.2-6.7-12.5C274,165.2,278,162.4,282.3,162.4 M282.3,148.4c-10.7,0-19.9,6.9-23,17.1
		c-3.8,12.7,3.4,26.1,16.1,29.9l42.1,12.7c2.3,0.7,4.6,1,6.9,1c10.7,0,19.9-6.9,23-17.1c3.8-12.7-3.4-26.1-16.1-29.9l-42.1-12.7
		C287,148.8,284.6,148.4,282.3,148.4z"/>
</g>
<g>
	<path class="st0" d="M113.5,153.7c-4.6,0-8.9-1.8-12-5c-3.2-3.2-4.9-7.5-4.9-12.1c0-4.5,1.8-8.8,5-11.9l31-31c3.2-3.2,7.5-5,12-5
		c4.6,0,8.8,1.8,12,5c3.2,3.1,4.9,7.3,5,11.9c0,4.6-1.7,8.9-5,12.1l-31.1,31.1C122.3,151.9,118,153.7,113.5,153.7L113.5,153.7z"/>
	<path d="M144.6,95.6c2.6,0,5.1,1,7,2.9c3.9,3.8,3.9,10.2,0,14.1l-31.1,31.1c-1.9,1.9-4.5,2.9-7.1,2.9s-5.1-1-7-2.9
		c-3.9-3.9-3.9-10.3,0-14.1l31.1-31.1C139.5,96.6,142.1,95.6,144.6,95.6 M144.6,81.6c-6.4,0-12.5,2.5-17,7l-31,31
		c-4.5,4.4-7,10.4-7.1,16.8c0,6.5,2.4,12.5,7,17.1c4.5,4.6,10.5,7.1,17,7.1c6.4,0,12.5-2.5,17-7l31.1-31.1c4.6-4.6,7.1-10.7,7-17.1
		c0-6.4-2.5-12.3-7-16.8S151.1,81.6,144.6,81.6L144.6,81.6z"/>
</g>
</svg>
