<svg id="Layer_1" 
	xmlns="http://www.w3.org/2000/svg" viewBox="0 0 400 400">
	<style>.st2{fill:none;stroke:#000;stroke-width:14;stroke-linecap:round;stroke-miterlimit:10}.st3{fill:#ffe8ae}</style>
	<g id="Layer_2_1_">
		<path class="st3" d="M179.6 99.3c-5 0-9.7-2.2-12.9-5.9-3-3.5-4.4-7.8-4-12.4.4-4.5 2.4-8.6 5.9-11.6L202 40.8c3.1-2.6 7-4.1 11-4.1 5 0 9.7 2.2 12.9 6 3 3.5 4.4 7.9 4 12.5-.4 4.5-2.5 8.6-6 11.5l-33.3 28.5c-3 2.7-7 4.1-11 4.1z"/>
		<path d="M213 43.7c2.8 0 5.6 1.2 7.6 3.5 3.6 4.2 3.1 10.6-1.1 14.1l-33.4 28.6c-1.9 1.6-4.2 2.4-6.5 2.4-2.8 0-5.6-1.2-7.6-3.5-3.6-4.2-3.1-10.5 1.1-14.1l33.4-28.6c1.9-1.6 4.2-2.4 6.5-2.4m0-14c-5.7 0-11.3 2.1-15.6 5.8L164 64.1c-4.9 4.2-7.8 10-8.3 16.4-.5 6.4 1.5 12.6 5.7 17.5 4.6 5.3 11.2 8.4 18.2 8.4 5.7 0 11.3-2.1 15.6-5.8L228.5 72c4.9-4.1 7.8-9.9 8.4-16.2.5-6.5-1.5-12.7-5.7-17.7-4.6-5.3-11.2-8.4-18.2-8.4z"/>
		<path class="st3" d="M252.2 165.4c-3.9 0-7.8-1.4-10.7-3.9l-34-27.9c-7.2-5.9-8.3-16.6-2.4-23.9 3.2-4 8-6.3 13.2-6.3 3.9 0 7.7 1.4 10.8 3.8l34 27.9c7.2 5.9 8.3 16.6 2.4 23.9-3.4 4.1-8.2 6.4-13.3 6.4z"/>
		<path d="M218.3 110.5c2.2 0 4.5.7 6.4 2.3l34 27.9c4.3 3.5 4.9 9.8 1.4 14.1-2 2.4-4.9 3.6-7.8 3.6-2.2 0-4.5-.7-6.3-2.2l-34-27.9c-4.3-3.5-4.9-9.8-1.4-14.1 1.9-2.5 4.8-3.7 7.7-3.7m0-14c-7.2 0-14 3.2-18.6 8.8-8.4 10.3-6.8 25.4 3.4 33.8l34 27.9c4.2 3.5 9.6 5.4 15.2 5.4 7.2 0 14-3.2 18.6-8.7l.1-.1.1-.1c4-5 5.9-11.2 5.3-17.6-.6-6.4-3.7-12.2-8.7-16.2l-34-27.9c-4.5-3.4-9.9-5.3-15.4-5.3z"/>
		<path class="st3" d="M119 228.9c-.8 0-1.7-.1-2.5-.2l-43.6-6.8c-4.4-.7-8.4-3.1-11.1-6.8-2.7-3.7-3.8-8.2-3-12.6 1.2-8.2 8.4-14.3 16.7-14.3.9 0 1.8.1 2.7.2l43.4 6.8c4.4.7 8.4 3.1 11.1 6.8 2.7 3.7 3.8 8.2 3 12.7-1.3 8.2-8.3 14.2-16.7 14.2z"/>
		<path d="M75.5 195.2c.5 0 1.1 0 1.6.1l43.5 6.8c5.4.8 9.2 6 8.3 11.4-.8 4.9-5.1 8.4-9.9 8.4-.5 0-1 0-1.5-.1L74 215c-5.4-.8-9.2-6-8.3-11.4.7-4.8 5-8.4 9.8-8.4m0-14c-11.7 0-21.9 8.7-23.6 20.3-1 6.3.5 12.6 4.3 17.8 3.7 5.1 9.5 8.6 15.7 9.6l43.5 6.8h.2c1.2.2 2.3.3 3.5.3 11.8 0 21.8-8.5 23.7-20.1 1.1-6.3-.5-12.7-4.3-18-3.7-5.1-9.5-8.6-15.7-9.6l-43.4-6.8c-1.3-.2-2.6-.3-3.9-.3z"/>
		<path class="st3" d="M157.3 229.8c-7 0-13.4-4.3-15.9-10.8-3.4-8.7.9-18.6 9.7-22.1l41-16c2-.8 4-1.2 6.1-1.2 7 0 13.4 4.3 15.9 10.8 3.4 8.7-.9 18.6-9.7 22.1l-41 16c-1.9.8-4 1.2-6.1 1.2z"/>
		<path d="M198.2 186.7c4 0 7.9 2.4 9.4 6.4 2 5.1-.6 11-5.7 13l-41 16c-1.2.5-2.4.7-3.6.7-4 0-7.9-2.4-9.4-6.4-2-5.1.6-11 5.7-13l41-16c1.2-.4 2.4-.7 3.6-.7m0-14c-3 0-5.9.6-8.7 1.6l-41 16c-12.4 4.9-18.5 18.8-13.6 31.2 3.6 9.1 12.6 15.3 22.5 15.3 3 0 5.9-.6 8.7-1.6l41-16c12.4-4.9 18.5-18.8 13.6-31.2-3.7-9.1-12.7-15.3-22.5-15.3z"/>
		<g>
			<path class="st3" d="M225.9 287c-2.9 0-5.8-.8-8.4-2.2l-.1-.1c-8-4.7-10.8-15.1-6.3-23.2l22-38.2c2.9-5.2 8.6-8.5 14.8-8.5 2.9 0 5.9.8 8.4 2.2l.1.1c8 4.7 10.8 15.1 6.3 23.2l-22 38.2c-3.1 5.3-8.8 8.5-14.8 8.5z"/>
			<path d="M247.9 221.9c1.7 0 3.4.4 5 1.3 4.8 2.8 6.4 8.9 3.7 13.7l-22 38.1c-1.9 3.2-5.3 5-8.7 5-1.7 0-3.4-.4-5-1.3-4.8-2.8-6.4-8.9-3.7-13.7l22-38.1c1.8-3.2 5.2-5 8.7-5m0-14c-8.6 0-16.6 4.6-20.9 12.1l-22 38v.2c-6.4 11.4-2.5 26.1 8.8 32.7l.1.1.1.1c3.6 2 7.7 3.1 11.8 3.1 8.5 0 16.5-4.6 20.8-12l22-38.1v-.2c6.4-11.4 2.5-26.1-8.8-32.7l-.1-.1-.1-.1c-3.5-2-7.6-3.1-11.7-3.1z"/>
		</g>
		<g>
			<path class="st3" d="M202.6 363.3c-1.5 0-2.9-.2-4.3-.6-4.4-1.2-8-4-10.3-7.9-2.3-3.9-2.9-8.5-1.8-12.9l11.2-42.5c2-7.4 8.7-12.6 16.4-12.6 1.5 0 2.9.2 4.3.6 4.4 1.2 8 4 10.3 7.9 2.3 3.9 2.9 8.5 1.8 12.9L219 350.7c-1.9 7.4-8.7 12.6-16.4 12.6z"/>
			<path d="M213.9 293.8c.8 0 1.7.1 2.5.3 5.3 1.4 8.5 6.9 7.1 12.2l-11.2 42.5c-1.2 4.5-5.3 7.4-9.7 7.4-.8 0-1.7-.1-2.5-.3-5.3-1.4-8.5-6.9-7.1-12.2l11.2-42.5c1.2-4.4 5.3-7.4 9.7-7.4m0-14c-10.9 0-20.4 7.3-23.2 17.9l-11.2 42.5c-1.6 6.2-.8 12.6 2.5 18.2 3.2 5.5 8.4 9.5 14.6 11.1 2 .5 4 .8 6.1.8 10.9 0 20.4-7.3 23.2-17.9l11.2-42.5c1.6-6.2.8-12.6-2.5-18.2-3.2-5.5-8.4-9.5-14.6-11.1-2-.5-4.1-.8-6.1-.8z"/>
		</g>
		<g>
			<path class="st3" d="M324.4 202.2c-1.7 0-3.3-.2-4.9-.7l-42.1-12.7c-9-2.7-14.1-12.2-11.4-21.2 2.2-7.1 8.9-12.1 16.3-12.1 1.7 0 3.3.2 4.9.7l42.1 12.7c4.4 1.3 7.9 4.2 10.1 8.3 2.1 4 2.6 8.6 1.3 13-2.2 7-8.9 12-16.3 12z"/>
			<path d="M282.3 162.4c1 0 1.9.1 2.9.4l42.1 12.7c5.3 1.6 8.3 7.2 6.7 12.5-1.3 4.3-5.3 7.1-9.6 7.1-1 0-1.9-.1-2.9-.4L279.4 182c-5.3-1.6-8.3-7.2-6.7-12.5 1.3-4.3 5.3-7.1 9.6-7.1m0-14c-10.7 0-19.9 6.9-23 17.1-3.8 12.7 3.4 26.1 16.1 29.9l42.1 12.7c2.3.7 4.6 1 6.9 1 10.7 0 19.9-6.9 23-17.1 3.8-12.7-3.4-26.1-16.1-29.9l-42.1-12.7c-2.2-.6-4.6-1-6.9-1z"/>
		</g>
		<g>
			<path class="st3" d="M113.5 153.7c-4.6 0-8.9-1.8-12-5-3.2-3.2-4.9-7.5-4.9-12.1 0-4.5 1.8-8.8 5-11.9l31-31c3.2-3.2 7.5-5 12-5 4.6 0 8.8 1.8 12 5 3.2 3.1 4.9 7.3 5 11.9 0 4.6-1.7 8.9-5 12.1l-31.1 31.1c-3.2 3.1-7.5 4.9-12 4.9z"/>
			<path d="M144.6 95.6c2.6 0 5.1 1 7 2.9 3.9 3.8 3.9 10.2 0 14.1l-31.1 31.1c-1.9 1.9-4.5 2.9-7.1 2.9s-5.1-1-7-2.9c-3.9-3.9-3.9-10.3 0-14.1l31.1-31.1c2-1.9 4.6-2.9 7.1-2.9m0-14c-6.4 0-12.5 2.5-17 7l-31 31c-4.5 4.4-7 10.4-7.1 16.8 0 6.5 2.4 12.5 7 17.1 4.5 4.6 10.5 7.1 17 7.1 6.4 0 12.5-2.5 17-7l31.1-31.1c4.6-4.6 7.1-10.7 7-17.1 0-6.4-2.5-12.3-7-16.8s-10.5-7-17-7z"/>
		</g>
	</g>
</svg>