<?xml version="1.0" encoding="utf-8"?>
<!-- Generator: Adobe Illustrator 22.0.1, SVG Export Plug-In . SVG Version: 6.00 Build 0)  -->
<svg version="1.1" xmlns="http://www.w3.org/2000/svg" xmlns:xlink="http://www.w3.org/1999/xlink" x="0px" y="0px"
	 viewBox="0 0 400 400" style="enable-background:new 0 0 400 400;" xml:space="preserve">
<style type="text/css">
	.st0{display:none;}
	.st1{display:inline;}
	.st2{fill:none;stroke:#000000;stroke-width:14;stroke-linecap:round;stroke-miterlimit:10;}
	.st3{fill:#BDFFF2;stroke:#000000;stroke-width:14;stroke-linecap:round;stroke-miterlimit:10;}
</style>
<g id="Layer_3" class="st0">
	<g class="st1">
		<line class="st2" x1="309.2" y1="185.1" x2="267.2" y2="174.1"/>
		<line class="st2" x1="248.8" y1="165.5" x2="215.6" y2="137.6"/>
		<line class="st2" x1="200.6" y1="78.3" x2="167.8" y2="106.8"/>
		<line class="st2" x1="154.5" y1="118.2" x2="123.8" y2="148.9"/>
		<line class="st2" x1="133.5" y1="219.5" x2="90.8" y2="211.7"/>
		<line class="st2" x1="192.3" y1="201.5" x2="152" y2="217.6"/>
		<line class="st2" x1="233.7" y1="225.2" x2="210.6" y2="262"/>
		<line class="st2" x1="205.3" y1="279.5" x2="195" y2="321.7"/>
	</g>
</g>
<g id="Layer_2" class="st0">
	
		<image style="display:inline;overflow:visible;" width="512" height="512" xlink:href="17AF25CC.jpg"  transform="matrix(0.7539 0 0 0.7539 0 18)">
	</image>
</g>
<g id="Layer_4">
	<path class="st3" d="M195.5,67.8c-15,0-27.9,9.2-33.3,22.2c-2.3-0.4-4.6-0.7-7-0.7c-19.6,0-35.5,15.6-36.1,35.1
		c-15.6,4-27.2,18.1-27.2,35c0,8.8,3.2,16.9,8.4,23.1c-8.7,6.6-14.4,17.1-14.4,28.9c0,15.5,9.8,28.8,23.6,33.9
		c-1.4,3.8-2.1,7.9-2.1,12.2c0,19.9,16.2,36.1,36.1,36.1c1.9,0,3.7-0.1,5.5-0.4c2.9,17,17.7,29.9,35.6,29.9c6.6,0,12.7-1.8,18-4.8
		c5.3,3.1,11.5,4.8,18,4.8c11.2,0,21.3-5.1,27.9-13.2c3.5,1.1,7.2,1.7,11,1.7c13.4,0,25-7.3,31.3-18.1c18.9-1.2,33.8-16.8,33.8-36
		c0-5.1-1.1-9.9-3-14.3c14.2-4.8,24.5-18.3,24.5-34.2c0-11.1-5-21.1-12.9-27.7c3.7-5.7,5.9-12.5,5.9-19.8
		c0-16.7-11.3-30.7-26.7-34.8c0.1-1.1,0.2-2.2,0.2-3.3c0-19.9-16.2-36.1-36.1-36.1c-2.9,0-5.8,0.4-8.5,1
		c-5.8-12.1-18.2-20.4-32.5-20.4c-7.4,0-14.3,2.2-20,6C209.7,70,202.9,67.8,195.5,67.8z"/>
	<path class="st2" d="M128.9,217.3c-12.8-3.5-22-15.4-21.5-29.2c0.5-16.2,14.1-28.9,30.2-28.3"/>
	<path class="st2" d="M190.3,283.9c-9.5,9.3-24.4,11.2-36.1,3.8c-13.7-8.6-17.8-26.7-9.2-40.4"/>
	<path class="st2" d="M226.9,275c-9.5,9.3-24.4,11.2-36.1,3.8c-13.7-8.6-17.8-26.7-9.2-40.4"/>
	<path class="st2" d="M196.5,219.2c-11.4,6.7-26.4,4.9-35.9-5.1c-11.2-11.7-10.7-30.2,1-41.4"/>
	<path class="st2" d="M151.6,191.9c-11.1-7.2-16.4-21.3-11.8-34.3c5.3-15.3,22-23.3,37.3-18"/>
	<path class="st2" d="M187,114.7c0.3-13.2,9.5-25.1,23.1-28c15.8-3.4,31.4,6.6,34.9,22.4"/>
	<path class="st2" d="M205.6,138.4c10.8-7.7,25.8-7.3,36.2,1.8c12.2,10.6,13.5,29.1,2.8,41.3"/>
	<path class="st2" d="M265.4,123.3c11.5-6.6,26.4-4.7,35.9,5.3c11.1,11.8,10.6,30.3-1.2,41.4"/>
	<path class="st2" d="M278.9,161.6c13.1,1.8,23.7,12.5,25.1,26.2c1.5,16.1-10.3,30.4-26.4,32"/>
	<path class="st2" d="M296.1,248.2c6.2,11.7,3.9,26.5-6.4,35.7c-12.1,10.7-30.6,9.6-41.4-2.5"/>
</g>
</svg>
