<svg id="Layer_2" 
	xmlns="http://www.w3.org/2000/svg" viewBox="0 0 400 400">
	<style>.stA,.stB{fill:#fc0;stroke:#000;stroke-width:14;stroke-miterlimit:10}.stB{fill:none;stroke-linecap:round}</style>
	<path class="stA" d="M273.7 282.3c.6 7.3 3 22.7 4.3 29 1.3 6.3 7.3 21.3-7.3 32.7-14.7 11.3-60 20-93 19S110 352.7 101 340.3c-9-12.3 2.7-31.7 3-41 .3-9.3 2.3-129 2.3-129s65.3-77.7 164.3-38.7c.1.1.2 113.2 3.1 150.7z"/>
	<path class="stA" d="M272.4 255.5s24.6 10.7 22.9-38.5-1-55.3-24.5-58.5l-.1-26.8s20.3-9.3 34-.3 21 18.3 21 32v87.3s-.3 19-17.3 29.7-34.6 4.1-34.6 4.1l-1.4-29z"/>
	<path class="stB" d="M191 180.5V295M240.3 174.1l7 115M141.7 174.1l-7 115"/>
	<path d="M284.3 80c8.1 5.7 11.1 32.3.1 37.7-12.7 6.2-11.5 34-27.8 26.6-14.1-6.3-11.2-7.7-21.8 1.4-16 13.6-20-12-38.8 7.5-11.2 11.6-17.8-12.5-21.8 5.2s-8.8 30.7-16.4 19.7-12.9.9-14.5 19.5-3.4 40.1-13 38.4-18.1-22.6-18.7-36c-1-22-13.8-14-13.7-26.3.1-12.3 4.7-17.3-6.9-17-16.1.5-23-8.4-22.3-27.1.7-18.7-3.6-34.8 6.4-42.6 8.5-6.6 6.3-26.7 18.8-30.5 18.6-5.7 16.1-13.4 30.5-20.5 24.8-12.3 37.1-4.7 68.3-4.7 30.8.1 28.8-18.4 55-.3 15.3 10.5 3.3 19.8 25 20.8S274.3 73 284.3 80z" fill="#fff" stroke="#000" stroke-width="14" stroke-miterlimit="10"/>
	<path class="stB" d="M104.7 308.7s36.7 26.7 114 14M220.5 91.2c7-9.9 20.7-12.3 30.6-5.4 6 4.2 9.3 11 9.4 17.8M195.4 67.1c7-9.9 20.7-12.3 30.6-5.4 6 4.2 9.3 11 9.4 17.8M101.8 122.8c-4.4-11.3 1.2-24 12.5-28.4 6.9-2.7 14.3-1.7 20 2.1M122.5 89.4c-3.7-11.6 2.7-23.9 14.3-27.6 7-2.2 14.4-.7 19.8 3.4"/>
</svg>