<svg version="1.1" xmlns="http://www.w3.org/2000/svg" xmlns:xlink="http://www.w3.org/1999/xlink" x="0px" y="0px" viewBox="0 0 400 400" style="enable-background:new 0 0 400 400;" id="BkEIY-Nsf">
    <style xmlns="http://www.w3.org/1999/xhtml">
        @-webkit-keyframes HJ2ELFW4oz_HJ1pYZ4iG_Animation{0%{-webkit-transform: translate(0px, 0px);transform: translate(0px, 0px);}44.67%{-webkit-transform: translate(0px, 0px);transform: translate(0px, 0px);}64.67%{-webkit-transform: translate(0px, 160px);transform: translate(0px, 160px);}70.67%{-webkit-transform: translate(0px, 150px);transform: translate(0px, 150px);}76.67%{-webkit-transform: translate(0px, 160px);transform: translate(0px, 160px);}81.33%{-webkit-transform: translate(0px, 150px);transform: translate(0px, 150px);}86.67%{-webkit-transform: translate(0px, 155px);transform: translate(0px, 155px);}92%{-webkit-transform: translate(0px, 160px);transform: translate(0px, 160px);}100%{-webkit-transform: translate(0px, 0px);transform: translate(0px, 0px);}}@keyframes HJ2ELFW4oz_HJ1pYZ4iG_Animation{0%{-webkit-transform: translate(0px, 0px);transform: translate(0px, 0px);}44.67%{-webkit-transform: translate(0px, 0px);transform: translate(0px, 0px);}64.67%{-webkit-transform: translate(0px, 160px);transform: translate(0px, 160px);}70.67%{-webkit-transform: translate(0px, 150px);transform: translate(0px, 150px);}76.67%{-webkit-transform: translate(0px, 160px);transform: translate(0px, 160px);}81.33%{-webkit-transform: translate(0px, 150px);transform: translate(0px, 150px);}86.67%{-webkit-transform: translate(0px, 155px);transform: translate(0px, 155px);}92%{-webkit-transform: translate(0px, 160px);transform: translate(0px, 160px);}100%{-webkit-transform: translate(0px, 0px);transform: translate(0px, 0px);}}@-webkit-keyframes HJ2ELFW4oz_Animation{0%{opacity: 0;}32%{opacity: 0;}40%{opacity: 1;}92.67%{opacity: 1;}100%{opacity: 0;}}@keyframes HJ2ELFW4oz_Animation{0%{opacity: 0;}32%{opacity: 0;}40%{opacity: 1;}92.67%{opacity: 1;}100%{opacity: 0;}}@-webkit-keyframes r1MZNIt-EjG_SyUuYWVjf_Animation{0%{-webkit-transform: rotate(0deg);transform: rotate(0deg);}20%{-webkit-transform: rotate(140deg);transform: rotate(140deg);}88%{-webkit-transform: rotate(140deg);transform: rotate(140deg);}100%{-webkit-transform: rotate(0deg);transform: rotate(0deg);}}@keyframes r1MZNIt-EjG_SyUuYWVjf_Animation{0%{-webkit-transform: rotate(0deg);transform: rotate(0deg);}20%{-webkit-transform: rotate(140deg);transform: rotate(140deg);}88%{-webkit-transform: rotate(140deg);transform: rotate(140deg);}100%{-webkit-transform: rotate(0deg);transform: rotate(0deg);}}#BkEIY-Nsf *{-webkit-animation-duration: 5s;animation-duration: 5s;-webkit-animation-iteration-count: infinite;animation-iteration-count: infinite;-webkit-animation-timing-function: cubic-bezier(0, 0, 1, 1);animation-timing-function: cubic-bezier(0, 0, 1, 1);transform-box: fill-box;-webkit-transform-origin: 50% 50%;transform-origin: 50% 50%;}#BJZ4UY-NjG{fill: #CCCCCC;stroke: #000000;stroke-width: 5;stroke-linejoin: bevel;stroke-miterlimit: 10;}#BJMVLt-Vif{fill: #CCCCCC;stroke: #000000;stroke-width: 5;stroke-linejoin: bevel;stroke-miterlimit: 10;}#B144Itb4if{fill: none;stroke: #000000;stroke-width: 5.2336;stroke-linejoin: bevel;stroke-miterlimit: 10;fill-opacity: 0.61;stroke-linecap: round;}#B1vNLFWNjz{fill: #73B6FF;fill-opacity: 0.61;}#rJ_NUtbVoG{fill: #73B6FF;fill-opacity: 0.61;}#BJF48YbEif{fill: #73B6FF;fill-opacity: 0.61;}#BJcVUtZ4sM{fill: #73B6FF;fill-opacity: 0.61;}#SksNIKZVof{fill: #73B6FF;fill-opacity: 0.61;}#HJaV8KZNoz{fill: #F9ECB9;}#SyRVUYbNsf{fill: #C69D4A;}#Hk1eEUtbVjM{fill: #E0B568;}#B1lg4UKW4iM{fill: none;stroke: #000000;stroke-width: 3.8601;stroke-miterlimit: 10;}#SJ-xV8K-4if{fill: #F9ECB9;stroke: #000000;stroke-width: 3.8601;stroke-miterlimit: 10;}#HJXe48YWVif{fill: #FFFEFD;}#HJBgNUYZVoz{fill: #FFFEFD;}#S1dxNIFbVoG{fill: #FFFEFD;}#rktxN8tWVoG{fill: #FFFEFD;}#SkclNLKZVoM{fill: #FFFEFD;}#BJnxEIFbVjz{fill: #FFFEFD;}#rJ0eE8YZ4jz{fill: #CCCCCC;stroke: #000000;stroke-width: 5;stroke-linejoin: round;stroke-miterlimit: 10;}#S1ybN8FW4sf{fill: #4AB2FF;fill-opacity: 0.61;}#rJlZE8FZ4jM{fill: #73B6FF;fill-opacity: 0.61;}#rk-b4IY-EiM{fill: #CCCCCC;stroke: #000000;stroke-width: 4.7961;stroke-linejoin: round;stroke-miterlimit: 10;}#BJ4WV8Fb4oG{fill: #CCCCCC;stroke: #000000;stroke-width: 5.2336;stroke-linejoin: bevel;stroke-miterlimit: 10;}#SJB-4UFW4iz{fill: none;stroke: #000000;stroke-width: 5.2336;stroke-linecap: round;stroke-linejoin: bevel;stroke-miterlimit: 10;}#r1MZNIt-EjG_SyUuYWVjf{-webkit-animation-name: r1MZNIt-EjG_SyUuYWVjf_Animation;animation-name: r1MZNIt-EjG_SyUuYWVjf_Animation;-webkit-transform-origin: 50% 50%;transform-origin: 50% 50%;-webkit-transform: rotate(0deg);transform: rotate(0deg);}#HJ2ELFW4oz{-webkit-animation-name: HJ2ELFW4oz_Animation;animation-name: HJ2ELFW4oz_Animation;-webkit-transform-origin: 50% 50%;transform-origin: 50% 50%;opacity: 0;}#HJ2ELFW4oz_HJ1pYZ4iG{-webkit-animation-name: HJ2ELFW4oz_HJ1pYZ4iG_Animation;animation-name: HJ2ELFW4oz_HJ1pYZ4iG_Animation;-webkit-transform-origin: 50% 50%;transform-origin: 50% 50%;-webkit-transform: translate(0px, 0px);transform: translate(0px, 0px);}
    </style>
    <g id="HyeVIt-Vjz">
        <polygon points="353,328.9 47,328.9 74,293.6 326,293.6 &#9;" id="BJZ4UY-NjG"/>
        <rect x="47" y="328.9" width="306" height="50.6" id="BJMVLt-Vif"/>
    </g>
    <g id="ryQNIt-Eif">
        <path d="M94.8,123.9c0,0,87.8-19.4,210.5,0c6.1,1-37.6,31.2-37.6,31.2l-54,147l-96.6-1.3l-1.5-162.3&#10;&#9;&#9;C115.5,138.3,94.2,143.1,94.8,123.9" id="B144Itb4if"/>
    </g>
    <g id="B1BE8YbNsf">
        <g id="By8EIF-EoG">
            <path d="M213.6,196.8c-1.4,0-2.8,0-4.3,0C210.8,196.9,212.2,196.9,213.6,196.8z" id="B1vNLFWNjz"/>
            <path d="M209.1,196.9c-1.3,0-2.7,0-4,0C206.4,196.9,207.8,196.9,209.1,196.9z" id="rJ_NUtbVoG"/>
            <path d="M204.5,196.9c-1.5,0-3,0-4.5,0C201.5,196.9,203,196.9,204.5,196.9z" id="BJF48YbEif"/>
            <path d="M200,194c-46.7,0-84.5,2.7-84.5,6H218v5.8c38-0.6,66.5-3,66.5-5.8C284.5,196.6,246.7,194,200,194z" id="BJcVUtZ4sM"/>
            <path d="M218,196.8c-1.4,0-2.9,0-4.4,0.1C215.1,196.8,216.5,196.8,218,196.8z" id="SksNIKZVof"/>
        </g>
    </g>
    <g id="HJ2ELFW4oz_HJ1pYZ4iG" data-animator-group="true" data-animator-type="0">
        <g id="HJ2ELFW4oz">
            <path d="M213.1,104.1c-11.1,0.9-34.4-0.2-45.8,0c-6.6,0.1-21.8-6.4-25.7-19.1c-4.2-13.8,8.9-58.5,8.9-58.5&#10;&#9;&#9;c0-6.6,6.5-10.5,13.1-10.5h49.2c6.6,0,15,0.4,15,7c0,0,15.7,51.9,9.8,68.6C235.4,97.8,219.7,103.6,213.1,104.1z" id="HJaV8KZNoz"/>
            <path d="M234.1,51.7c0,1.7,14.4,41.4-8.3,49.8c-8,3-62,4.8-71.9-1.9c-22-15-8.1-45-8.1-47.3c0-2.2,15.3,2.6,46-0.2&#10;&#9;&#9;C221.6,49.5,234.1,49.5,234.1,51.7z" id="SyRVUYbNsf"/>
            <path d="M234.1,51.7c0,2.2-12.8,9.5-42.8,9.5s-45.6-6.6-45.6-8.8c0-2.2,15.3,2.6,46-0.2&#10;&#9;&#9;C221.6,49.5,234.1,49.5,234.1,51.7z" id="Hk1eEUtbVjM"/>
            <path d="M213.1,104.1c-11.1,0.9-34.4-0.2-45.8,0c-6.6,0.1-21.8-6.4-25.7-19.1c-4.2-13.8,8.9-58.5,8.9-58.5&#10;&#9;&#9;c0-6.6,6.5-10.5,13.1-10.5h49.2c6.6,0,15,0.4,15,7c0,0,15.7,51.9,9.8,68.6C235.4,97.8,219.7,103.6,213.1,104.1z" id="B1lg4UKW4iM"/>
            <path d="M223.6,14.9c2.6,2.3,8.8,12.3-12.9,12.3c-7.8,0-12.3,5.6-22.2,4.5c-8.3-0.9-27.4-2.6-33.5-3.9&#10;&#9;&#9;c-6.8-1.4-3.6-8.1,0-10.7c5-3.5,6.1,1.1,19.5-1c8.4-1.3,18.1-0.6,25.1-0.8C210.5,15.1,215.9,8.3,223.6,14.9z" id="SJ-xV8K-4if"/>
        </g>
    </g>
    <g id="SJfx48YW4sz">
        <circle cx="143.8" cy="261.3" r="6.3" id="HJXe48YWVif"/>
    </g>
    <g id="Hk4eV8FWViG">
        <circle cx="188.8" cy="258.3" r="6.3" id="HJBgNUYZVoz"/>
    </g>
    <g id="SyLlNUFWVjz">
    </g>
    <g id="rkwx4LtZNiz">
        <circle cx="178" cy="271.5" r="3.8" id="S1dxNIFbVoG"/>
        <circle cx="200" cy="277.8" r="3.8" id="rktxN8tWVoG"/>
        <circle cx="159.1" cy="269.3" r="3.8" id="SkclNLKZVoM"/>
    </g>
    <g id="r1sxNIFWViG">
        <circle cx="166.8" cy="251" r="6.3" id="BJnxEIFbVjz"/>
    </g>
    <g id="ByTeVLFWVjf">
        <path d="M325.8,190.9c0,0-10.3-2.7-14.4-2.7s-14.4,2.7-14.4,2.7v-18.1h28.8V190.9z M74.3,190.9c0,0,10.3-2.7,14.4-2.7&#10;&#9;&#9;c4.1,0,14.4,2.7,14.4,2.7v-18.1H74.3V190.9z" id="rJ0eE8YZ4jz"/>
        <path d="M200,205.9c-46.7,0-84.5-2.7-84.5-6h-2v104H218v-98.1C212.2,205.9,206.2,205.9,200,205.9z" id="S1ybN8FW4sf"/>
        <path d="M200,205.9c6.2,0,12.2,0,18-0.1v-5.8H115.5C115.5,203.2,153.3,205.9,200,205.9z" id="rJlZE8FZ4jM"/>
        <path d="M207.7,134.2v158.7h-69.1c-6.2,0-11.2-6.4-11.2-14.1V132.8v-3.5c-20-1.4-32.4-3.3-32.5-5.5&#10;&#9;&#9;c-2,0.3-3.5,9.2-3.5,11.1c0,1.9,9.2,11.1,11.1,11.1h0.9v152.3c0,10,8.2,18.1,18.1,18.1h157.5c10,0,18.1-8.2,18.1-18.1V146h0.9&#10;&#9;&#9;c2,0,11.1-9.2,11.1-11.1c0-1.9-1.7-11.1-3.7-11.1c0,4-43,7.3-97.6,7.6L207.7,134.2z" id="rk-b4IY-EiM"/>
    </g>
    <g id="r1MZNIt-EjG_SyUuYWVjf" data-animator-group="true" data-animator-type="1">
        <g id="r1MZNIt-EjG">
            <g id="By7bNLKbVjf">
                <circle cx="317.1" cy="354.2" r="18.4" id="BJ4WV8Fb4oG"/>
                <line x1="317.1" y1="342.5" x2="317.1" y2="351.7" id="SJB-4UFW4iz"/>
            </g>
        </g>
    </g>
</svg>