<svg id="Layer_2_1_" 
	xmlns="http://www.w3.org/2000/svg" viewBox="0 0 400 400">
	<style>.st1{fill:#568139;stroke:#000;stroke-width:14;stroke-linecap:round;stroke-miterlimit:10}</style>
	<path d="M321 74.9s-6 14-37 40" fill="none" stroke="#000" stroke-width="14" stroke-linecap="round" stroke-miterlimit="10"/>
	<path class="st1" d="M106 228.9s-40 34-25 91c0 0 50 12 92-28 0 0 67-119-67-63z"/>
	<path class="st1" d="M119.5 174.4c-18.4 9.6-41 19-47 77 0 0 34.5 27.5 97.5-17.5 65.7-46.9-16.1-77.5-50.5-59.5z"/>
	<path class="st1" d="M227.5 281.4c-11.8 17.1-31.4 41.9-79 44 0 0-33.2-38.9 22.5-97.5s78.6 21.6 56.5 53.5z"/>
	<path class="st1" d="M158 174.9s-40 34-25 91c0 0 50 12 92-28 0 0 67-119-67-63z"/>
	<path class="st1" d="M151 107.9c-18.4 9.6-48 21-56 68 0 0 39 38 104-10s-13.6-76-48-58zM292 246.9c-9.6 18.4-24.1 48.9-71 57.1 0 0-38.1-38.9 9.7-104s79.2 12.5 61.3 46.9z"/>
	<path class="st1" d="M290.5 113.4s76.9 63.3 9 145c0 0-28.3-18.5-42-56 0 0-40.2 4.8-55.8-5.8l-.2-.2c-10-16-6-57-6-57-37-15-54-39-54-39 84-65 149 13 149 13z"/>
</svg>