<svg 
    xmlns="http://www.w3.org/2000/svg" width="637" height="234">
    <g fill="none" stroke="#000" stroke-linecap="round" stroke-miterlimit="10">
        <path d="M612.5 77.6s-16.8 36.9-19 49.4c-2.2 12.5-2.5 28.8-1.5 36.5s4.5 23-33.5 18-58.5-12-52.8-32.8c5.7-20.8 18.5-84 21.3-98.3 2.8-14.3 18.5-2.5 35.3 1.5s44.8 11.3 46.5 17.5c1.7 6.2 8.8 17.3 11.5 11.8s4.8-11 10.3-13.3c5.5-2.3 7.3-2.3 2-14.8s-1-22.8-12.3-29.8S577.5-.7 573 4.1c-4.5 4.8-3.8 6.3-6.5 6"/>
        <path d="M594.3 61.1s-14.1 43.6-15 51.1c-.9 7.5 1.7 6.2-2 12.8-3.7 6.6-4.7 22.4-10.1 24.9-5.4 2.5 1.3 11.9-1.6 15.6-2.3 2.9-.3 16.4-13.6 15.2"/>
        <path d="M592.4 166.6s-.7 4.5-9.2 3.2-20.5-3.8-33.2-7.8-32.3-11.1-37.7-14.5c-5.4-3.4-4.4-7.2-3.3-11.8m12.2 15.9s17.7-71.5 22.3-83.2m16.7 4.7s-.3 13.8-4.5 11c-4.2-2.8 2.1 8.1-1.2 17.3-5.4 15 13.3 12.3 5.4 13.2-7.6.9-16.3 2.4-13.4 7.1 2.9 4.7-.2 14.5-1.7 16.7M525 60.3s-2.3 8.9-9.9 14c-7.6 5.1-21.7 20.7-19.5 41.5 2.2 20.8 10.8 15.9 10.8 30.2M543.5 2.3c-3.8-.5-12.5-4-12 7.8s1.5 9.8-12.3 7.7m-12.7-.5s-4.2-.3-2.5 5.3c1.7 5.6 6.3 12.5 7.7 14.5M24.4 77.6s16.8 36.9 19 49.4c2.2 12.5 2.5 28.8 1.5 36.5s-4.5 23 33.5 18 58.5-12 52.8-32.8c-5.7-20.8-18.5-84-21.3-98.3-2.8-14.3-18.5-2.5-35.3 1.5-16.8 4-44.7 11.4-46.4 17.7-1.7 6.3-8.8 17.3-11.5 11.8-2.7-5.5-4.8-11-10.3-13.3-5.5-2.3-7.3-2.3-2-14.8s1-22.8 12.3-29.8S59.5-.8 64 4c4.5 4.8 3.8 6.3 6.5 6"/>
        <path d="M42.6 61.1s14.1 43.6 15 51.1c.9 7.5-1.7 6.2 2 12.8 3.7 6.6 4.7 22.4 10.1 24.9 5.4 2.5-1.3 11.9 1.6 15.6 2.3 2.9.3 16.4 13.6 15.2"/>
        <path d="M44.5 166.6s.7 4.5 9.2 3.2 20.5-3.8 33.2-7.8 32.3-11.1 37.7-14.5c5.4-3.4 4.4-7.2 3.3-11.8m-12.2 15.9S98 80.1 93.4 68.4m-16.7 4.7s.3 13.8 4.5 11c4.2-2.8-2.1 8.1 1.2 17.3 5.4 15-13.3 12.3-5.4 13.2 7.6.9 16.3 2.4 13.4 7.1-2.9 4.7.2 14.5 1.7 16.7m19.7-78.1s2.3 8.9 9.9 14c7.6 5.1 21.7 20.7 19.5 41.5-2.2 20.8-10.8 15.9-10.8 30.2M93.4 2.3c3.8-.5 12.5-4 12 7.8s-1.5 9.8 12.3 7.7m12.7-.5s4.2-.3 2.5 5.3c-1.7 5.6-6.3 12.5-7.7 14.5"/>
        <path d="M495.4 105.8s-44.7 1.5-64.7 1-103.8-4.3-118.5-3.7c-14.7.6-37.8 5.9-99.8 3.8-62-2.1-70.9-1.1-70.9-1.1m143.7-.2S241.4 169 241.1 189m-11.5-81.7s25 58.1 45.7 81.7"/>
        <path d="M343.3 103.6s29.7 28.8 48.3 42.4c18.6 13.6 38.3 39.6 38.3 39.6M411 106.1s-19.3 52.3-36.3 76.4M363.5 49.6c9.4-2.7 20.5-2.8 26.7 2.3s12.5 10.7 5 19.2-25.5 15.7-37.8 4.5c-12.4-11.2-5.6-22.6 6.1-26z"/>
        <path d="M368.7 57.3c-2.4-.9 2.7-3.2 3.2-2s1.1 3.7-3.2 2zm11.3 0c-1.1-.1-2.4 1.6-1.5 2.2 1 .6 5.7-1.9 1.5-2.2zm9 9s-5.6 9.6-12.6 7.5-10.4-5.6-13.8-7.5M241.2 48.8c3.8-6.4 17.1-14.5 29.3-5.5s18.6 18.3 13.6 29.4-17.4 24.6-32.3 20.1c-14.9-4.5-28-15.1-10.6-44z"/>
        <path d="M251.9 56.4c.3-3.3 3.6-1.3 4.5 0 .8 1.3-5 4.8-4.5 0zm12.3 0c.9-2 4.1-1.4 4.8.3.7 1.7-7.1 4.7-4.8-.3zm12.7 3.2s-6.3 22-12.5 22.9c-6.2.9-9 3.3-18-5.6M142.6 207.8s20.7 26.7 22.2 22.2-4.4-24.7-2.5-30.5m27.6 26.5c-3.4-2.1-6.2-1-3-11.8s6.2-5.3 10-3.2c3.8 2.1 5.7 7.2 2.3 11.3-3.4 4.1-7.5 4.8-9.3 3.7zm33.7-22c1.2 3.8 2.8 14 7.5 17.3s5.8 5.2 19.7-4.2m15.1-16c4.5.3 21 2.7 20.5 9.5s-6 4.5-4.5 10.3c1.5 5.8.2 9.7 11 4m-17.7-9.9h16.7m53.3 10.1c-1.7-3.8-4.5-10.3-5.8-14-1.3-3.7-4-6 5.8-5.7 9.8.3 22.2-1.2 19.8 4.2-2.4 5.4-1.7 4.8 4.8 6.5s15.7 6.5 12.3 10.3c-3.4 3.8-15 4.3-16.7 4.8m34.8-1.9c-1.2-4.7-6.5-21.3-2-21.7 4.5-.4 28.2-2.5 24.8 2.5s-14.2 9.3-10.2 12.7 9.8 3.3 13.5 3m23.4-16.7c-4.5 1.5-14.5 2.8-10.8 7.7 3.7 4.9 6 3.9 9.8 3.2 4.4-.8-4.2 3.6-2.8 5 3 3.1 8 11.7 22.5 5m10.8-16.7c1.2 3.8 4.8 17.8 9.3 16s9.5-8.9 9.8-12.3c0 0 12.1 7.9 16.8 4.7 4.7-3.2 7.6-6.4 7.9-12.5"/>
    </g>
</svg>