<?xml version="1.0" encoding="utf-8"?>
<!-- Generator: Adobe Illustrator 22.0.1, SVG Export Plug-In . SVG Version: 6.00 Build 0)  -->
<svg version="1.1" id="Layer_1" xmlns="http://www.w3.org/2000/svg" xmlns:xlink="http://www.w3.org/1999/xlink" x="0px" y="0px"
	 viewBox="0 0 635.5 188.6" style="enable-background:new 0 0 635.5 188.6;" xml:space="preserve">
<style type="text/css">
	.st0{fill:none;stroke:#FFFFFF;stroke-width:7;stroke-linecap:round;stroke-miterlimit:10;}
</style>
<g>
	<path class="st0" d="M611.8,76.7c0,0-16.8,36.9-19,49.4s-2.5,28.8-1.5,36.5s4.5,23-33.5,18s-58.5-12-52.8-32.8s18.5-84,21.3-98.3
		s18.5-2.5,35.3,1.5s44.8,11.3,46.5,17.5c1.7,6.2,8.8,17.3,11.5,11.8s4.8-11,10.3-13.3s7.3-2.3,2-14.8s-1-22.8-12.3-29.8
		s-42.8-24-47.3-19.2s-3.8,6.3-6.5,6"/>
	<path class="st0" d="M593.6,60.2c0,0-14.1,43.6-15,51.1s1.7,6.2-2,12.8s-4.7,22.4-10.1,24.9c-5.4,2.5,1.3,11.9-1.6,15.6
		c-2.3,2.9-0.3,16.4-13.6,15.2"/>
	<path class="st0" d="M591.7,165.7c0,0-0.7,4.5-9.2,3.2s-20.5-3.8-33.2-7.8S517,150,511.6,146.6c-5.4-3.4-4.4-7.2-3.3-11.8
		 M520.5,150.7c0,0,17.7-71.5,22.3-83.2 M559.5,72.2c0,0-0.3,13.8-4.5,11s2.1,8.1-1.2,17.3c-5.4,15,13.3,12.3,5.4,13.2
		c-7.6,0.9-16.3,2.4-13.4,7.1c2.9,4.7-0.2,14.5-1.7,16.7 M524.3,59.4c0,0-2.3,8.9-9.9,14c-7.6,5.1-21.7,20.7-19.5,41.5
		s10.8,15.9,10.8,30.2 M542.8,1.4c-3.8-0.5-12.5-4-12,7.8s1.5,9.8-12.3,7.7 M505.8,16.4c0,0-4.2-0.3-2.5,5.3s6.3,12.5,7.7,14.5
		 M23.7,76.7c0,0,16.8,36.9,19,49.4c2.2,12.5,2.5,28.8,1.5,36.5s-4.5,23,33.5,18s58.5-12,52.8-32.8s-18.5-84-21.3-98.3
		S90.7,47,73.9,51S29.2,62.4,27.5,68.7S18.7,86,16,80.5s-4.8-11-10.3-13.3s-7.3-2.3-2-14.8s1-22.8,12.3-29.8S58.8-1.7,63.3,3.1
		s3.8,6.3,6.5,6"/>
	<path class="st0" d="M41.9,60.2c0,0,14.1,43.6,15,51.1s-1.7,6.2,2,12.8S63.6,146.5,69,149s-1.3,11.9,1.6,15.6
		c2.3,2.9,0.3,16.4,13.6,15.2"/>
	<path class="st0" d="M43.8,165.7c0,0,0.7,4.5,9.2,3.2s20.5-3.8,33.2-7.8s32.3-11.1,37.7-14.5c5.4-3.4,4.4-7.2,3.3-11.8 M115,150.7
		c0,0-17.7-71.5-22.3-83.2 M76,72.2c0,0,0.3,13.8,4.5,11s-2.1,8.1,1.2,17.3c5.4,15-13.3,12.3-5.4,13.2c7.6,0.9,16.3,2.4,13.4,7.1
		c-2.9,4.7,0.2,14.5,1.7,16.7 M111.1,59.4c0,0,2.3,8.9,9.9,14s21.7,20.7,19.5,41.5c-2.2,20.8-10.8,15.9-10.8,30.2 M92.7,1.4
		c3.8-0.5,12.5-4,12,7.8s-1.5,9.8,12.3,7.7 M129.7,16.4c0,0,4.2-0.3,2.5,5.3s-6.3,12.5-7.7,14.5"/>
	<path class="st0" d="M494.7,104.9c0,0-44.7,1.5-64.7,1s-103.8-4.3-118.5-3.7c-14.7,0.6-37.8,5.9-99.8,3.8s-70.9-1.1-70.9-1.1
		 M284.5,104.7c0,0-43.8,63.4-44.1,83.4 M228.9,106.4c0,0,25,58.1,45.7,81.7"/>
	<path class="st0" d="M342.6,102.7c0,0,29.7,28.8,48.3,42.4c18.6,13.6,38.3,39.6,38.3,39.6 M410.3,105.2c0,0-19.3,52.3-36.3,76.4
		 M362.8,48.7c9.4-2.7,20.5-2.8,26.7,2.3s12.5,10.7,5,19.2s-25.5,15.7-37.8,4.5C344.3,63.5,351.1,52.1,362.8,48.7L362.8,48.7z"/>
	<path class="st0" d="M368,56.4c-2.4-0.9,2.7-3.2,3.2-2S372.3,58.1,368,56.4z M379.3,56.4c-1.1-0.1-2.4,1.6-1.5,2.2
		C378.8,59.2,383.5,56.7,379.3,56.4z M388.3,65.4c0,0-5.6,9.6-12.6,7.5s-10.4-5.6-13.8-7.5 M240.5,47.9c3.8-6.4,17.1-14.5,29.3-5.5
		s18.6,18.3,13.6,29.4S266,96.4,251.1,91.9C236.2,87.4,223.1,76.8,240.5,47.9z"/>
	<path class="st0" d="M251.2,55.5c0.3-3.3,3.6-1.3,4.5,0C256.5,56.8,250.7,60.3,251.2,55.5z M263.5,55.5c0.9-2,4.1-1.4,4.8,0.3
		C269,57.5,261.2,60.5,263.5,55.5z M276.2,58.7c0,0-6.3,22-12.5,22.9c-6.2,0.9-9,3.3-18-5.6"/>
</g>
</svg>
