<?xml version="1.0" encoding="utf-8"?>
<!-- Generator: Adobe Illustrator 22.0.1, SVG Export Plug-In . SVG Version: 6.00 Build 0)  -->
<svg version="1.1" xmlns="http://www.w3.org/2000/svg" xmlns:xlink="http://www.w3.org/1999/xlink" x="0px" y="0px"
	 viewBox="0 0 400 400" style="enable-background:new 0 0 400 400;" xml:space="preserve">
<style type="text/css">
	.st0{fill:#FFCC00;stroke:#000000;stroke-width:5.6;stroke-miterlimit:10;}
	.st1{fill:none;stroke:#000000;stroke-width:5.6;stroke-linecap:round;stroke-miterlimit:10;}
	.st2{fill:#FFFFFF;stroke:#000000;stroke-width:5.6;stroke-miterlimit:10;}
	.st3{fill:#F5C623;stroke:#000000;stroke-width:5.1765;stroke-linecap:round;stroke-miterlimit:10;}
	.st4{fill:none;stroke:#000000;stroke-width:5.1764;stroke-linecap:round;stroke-miterlimit:10;}
	.st5{fill:#7DC1FF;stroke:#000000;stroke-width:5.6;stroke-miterlimit:10;}
	.st6{fill:#FFE8AE;}
	.st7{fill:#568139;stroke:#000000;stroke-width:5.6;stroke-linecap:round;stroke-miterlimit:10;}
</style>
<g id="beer">
	<g>
		<path class="st0" d="M230.7,235.7c0.2,2.9,1.2,9.1,1.7,11.6c0.5,2.5,2.9,8.5-2.9,13.1c-5.9,4.5-24,8-37.2,7.6s-27.1-4.1-30.7-9.1
			c-3.6-4.9,1.1-12.7,1.2-16.4c0.1-3.7,0.9-51.6,0.9-51.6s26.1-31.1,65.7-15.5C229.5,175.5,229.5,220.7,230.7,235.7z"/>
		<path class="st0" d="M230.1,225c0,0,9.8,4.3,9.2-15.4c-0.7-19.7-0.4-22.1-9.8-23.4l0-10.7c0,0,8.1-3.7,13.6-0.1
			c5.5,3.6,8.4,7.3,8.4,12.8v34.9c0,0-0.1,7.6-6.9,11.9c-6.8,4.3-13.8,1.6-13.8,1.6L230.1,225z"/>
		<path class="st1" d="M197.6,195v45.8 M217.3,192.4l2.8,46 M177.9,192.4l-2.8,46"/>
		<path class="st2" d="M234.9,154.8c3.2,2.3,4.4,12.9,0,15.1c-5.1,2.5-4.6,13.6-11.1,10.6c-5.6-2.5-4.5-3.1-8.7,0.6
			c-6.4,5.4-8-4.8-15.5,3c-4.5,4.6-7.1-5-8.7,2.1s-3.5,12.3-6.6,7.9c-3-4.4-5.2,0.4-5.8,7.8s-1.4,16-5.2,15.4s-7.2-9-7.5-14.4
			c-0.4-8.8-5.5-5.6-5.5-10.5c0-4.9,1.9-6.9-2.8-6.8c-6.4,0.2-9.2-3.4-8.9-10.8c0.3-7.5-1.4-13.9,2.6-17c3.4-2.6,2.5-10.7,7.5-12.2
			c7.4-2.3,6.4-5.4,12.2-8.2c9.9-4.9,14.8-1.9,27.3-1.9c12.3,0,11.5-7.4,22-0.1c6.1,4.2,1.3,7.9,10,8.3
			C238.9,143.9,230.9,152,234.9,154.8z"/>
		<path class="st1" d="M163.1,246.3c0,0,14.7,10.7,45.6,5.6 M209.4,159.3c2.8-4,8.3-4.9,12.2-2.2c2.4,1.7,3.7,4.4,3.8,7.1
			 M199.3,149.6c2.8-4,8.3-4.9,12.2-2.2c2.4,1.7,3.7,4.4,3.8,7.1 M161.9,171.9c-1.8-4.5,0.5-9.6,5-11.4c2.8-1.1,5.7-0.7,8,0.8
			 M170.2,158.5c-1.5-4.6,1.1-9.6,5.7-11c2.8-0.9,5.8-0.3,7.9,1.4"/>
	</g>
</g>
<g id="grain">
	<g>
		<path class="st3" d="M45,20.4c4.7,6,3.7,14.6-2.3,19.3c-6,4.7-14.6,3.7-19.3-2.3C18.7,31.5,18.5,9,18.5,9S40.3,14.4,45,20.4z"/>
		<path class="st4" d="M94.8,96.4c0,0,8.6,0,25.6,27.7"/>
		<path class="st3" d="M69.2,41.6c0,7.6-6.2,13.8-13.8,13.8s-13.8-6.2-13.8-13.8c0-7.6,13.8-25.4,13.8-25.4S69.2,34,69.2,41.6
			L69.2,41.6z"/>
		<path class="st3" d="M37.5,32.3c7.2,2.6,10.9,10.4,8.3,17.6c-2.6,7.2-10.4,10.9-17.6,8.3C21.1,55.7,9,36.7,9,36.7
			S30.4,29.8,37.5,32.3z"/>
		<path class="st3" d="M39.8,72.5c7.5,1.4,14.7-3.6,16-11c1.4-7.5-3.6-14.7-11-16c-7.5-1.4-27.5,8.9-27.5,8.9S32.3,71.1,39.8,72.5z"
			/>
		<path class="st3" d="M83.6,56c0,7.6-6.2,13.8-13.8,13.8C62.2,69.7,56,63.6,56,56s13.8-25.4,13.8-25.4S83.6,48.4,83.6,56z"/>
		<path class="st3" d="M55.5,87.5C63,88,69.6,82.2,70.1,74.6C70.6,67,64.8,60.5,57.2,60S31,72.1,31,72.1S47.8,87,55.5,87.5z"/>
		<path class="st3" d="M97.7,70.1c0,7.6-6.2,13.8-13.8,13.8c-7.6,0-13.8-6.2-13.8-13.8s13.8-25.4,13.8-25.4S97.7,62.5,97.7,70.1z"/>
		<path class="st3" d="M71.9,101.8c7.6,0,13.8-6.2,13.8-13.8s-6.2-13.8-13.8-13.8C64.3,74.3,46.5,88,46.5,88S64.3,101.8,71.9,101.8
			L71.9,101.8z"/>
		<path class="st3" d="M112.1,84.5c0,7.6-6.2,13.8-13.8,13.8s-13.8-6.2-13.8-13.8c0-7.6,13.8-25.4,13.8-25.4S112.1,76.8,112.1,84.5z
			"/>
		<path class="st3" d="M86.3,116.2c7.6,0,13.8-6.2,13.8-13.8s-6.2-13.8-13.8-13.8s-25.4,13.8-25.4,13.8S78.7,116.2,86.3,116.2z"/>
	</g>
</g>
<g id="water">
	<g>
		<path class="st5" d="M52.7,391C28.6,391,9,369.8,9,343.7c0-22.7,34.8-58.9,41.7-65.9l2-2l2,2c7,7,41.7,43.2,41.7,65.9
			C96.4,369.8,76.8,391,52.7,391z"/>
		<path class="st1" d="M26.3,343.6c0,0-1.6,10.4,8.4,22.4"/>
	</g>
</g>
<g id="yeast">
	<g>
		<path class="st6" d="M323.5,282.6c-2,0-3.9-0.9-5.2-2.4c-1.2-1.4-1.8-3.1-1.6-5c0.2-1.8,1-3.4,2.4-4.6l13.4-11.4
			c1.2-1,2.8-1.6,4.4-1.6c2,0,3.9,0.9,5.2,2.4c1.2,1.4,1.8,3.2,1.6,5c-0.2,1.8-1,3.4-2.4,4.6L327.9,281
			C326.7,282,325.1,282.6,323.5,282.6L323.5,282.6z"/>
		<path d="M336.8,260.4c1.1,0,2.2,0.5,3,1.4c1.4,1.7,1.2,4.2-0.4,5.6l-13.4,11.4c-0.8,0.6-1.7,1-2.6,1c-1.1,0-2.2-0.5-3-1.4
			c-1.4-1.7-1.2-4.2,0.4-5.6l13.4-11.4C335,260.7,335.9,260.4,336.8,260.4 M336.8,254.8c-2.3,0-4.5,0.8-6.2,2.3l-13.4,11.4
			c-2,1.7-3.1,4-3.3,6.6c-0.2,2.6,0.6,5,2.3,7c1.8,2.1,4.5,3.4,7.3,3.4c2.3,0,4.5-0.8,6.2-2.3l13.3-11.4c2-1.6,3.1-4,3.4-6.5
			c0.2-2.6-0.6-5.1-2.3-7.1C342.3,256,339.6,254.8,336.8,254.8z"/>
		<path class="st6" d="M352.5,309c-1.6,0-3.1-0.6-4.3-1.6l-13.6-11.2c-2.9-2.4-3.3-6.6-1-9.6c1.3-1.6,3.2-2.5,5.3-2.5
			c1.6,0,3.1,0.6,4.3,1.5l13.6,11.2c2.9,2.4,3.3,6.6,1,9.6C356.5,308.1,354.6,309,352.5,309z"/>
		<path d="M339,287.1c0.9,0,1.8,0.3,2.6,0.9l13.6,11.2c1.7,1.4,2,3.9,0.6,5.6c-0.8,1-2,1.4-3.1,1.4c-0.9,0-1.8-0.3-2.5-0.9
			l-13.6-11.2c-1.7-1.4-2-3.9-0.6-5.6C336.6,287.6,337.8,287.1,339,287.1 M339,281.5c-2.9,0-5.6,1.3-7.4,3.5
			c-3.4,4.1-2.7,10.2,1.4,13.5l13.6,11.2c1.7,1.4,3.8,2.2,6.1,2.2c2.9,0,5.6-1.3,7.4-3.5l0,0l0,0c1.6-2,2.4-4.5,2.1-7
			c-0.2-2.6-1.5-4.9-3.5-6.5l-13.6-11.2C343.3,282.2,341.2,281.5,339,281.5L339,281.5z"/>
		<path class="st6" d="M299.2,334.4c-0.3,0-0.7,0-1-0.1l-17.4-2.7c-1.8-0.3-3.4-1.2-4.4-2.7c-1.1-1.5-1.5-3.3-1.2-5
			c0.5-3.3,3.4-5.7,6.7-5.7c0.4,0,0.7,0,1.1,0.1l17.4,2.7c1.8,0.3,3.4,1.2,4.4,2.7c1.1,1.5,1.5,3.3,1.2,5.1
			C305.4,332,302.6,334.4,299.2,334.4L299.2,334.4z"/>
		<path d="M281.8,321c0.2,0,0.4,0,0.6,0l17.4,2.7c2.2,0.3,3.7,2.4,3.3,4.6c-0.3,2-2,3.4-4,3.4c-0.2,0-0.4,0-0.6,0l-17.4-2.7
			c-2.2-0.3-3.7-2.4-3.3-4.6C278.2,322.4,279.9,321,281.8,321 M281.8,315.4c-4.7,0-8.8,3.5-9.4,8.1c-0.4,2.5,0.2,5,1.7,7.1
			c1.5,2,3.8,3.4,6.3,3.8l17.4,2.7h0.1c0.5,0.1,0.9,0.1,1.4,0.1c4.7,0,8.7-3.4,9.5-8c0.4-2.5-0.2-5.1-1.7-7.2
			c-1.5-2-3.8-3.4-6.3-3.8l-17.4-2.7C282.9,315.4,282.4,315.4,281.8,315.4z"/>
		<path class="st6" d="M314.6,334.8c-2.8,0-5.4-1.7-6.4-4.3c-1.4-3.5,0.4-7.4,3.9-8.8l16.4-6.4c0.8-0.3,1.6-0.5,2.4-0.5
			c2.8,0,5.4,1.7,6.4,4.3c1.4,3.5-0.4,7.4-3.9,8.8l-16.4,6.4C316.2,334.6,315.4,334.8,314.6,334.8z"/>
		<path d="M330.9,317.6c1.6,0,3.2,1,3.8,2.6c0.8,2-0.2,4.4-2.3,5.2l-16.4,6.4c-0.5,0.2-1,0.3-1.4,0.3c-1.6,0-3.2-1-3.8-2.6
			c-0.8-2,0.2-4.4,2.3-5.2l16.4-6.4C330,317.7,330.4,317.6,330.9,317.6 M330.9,312c-1.2,0-2.4,0.2-3.5,0.6L311,319
			c-5,2-7.4,7.5-5.4,12.5c1.4,3.6,5,6.1,9,6.1c1.2,0,2.4-0.2,3.5-0.6l16.4-6.4c5-2,7.4-7.5,5.4-12.5
			C338.4,314.4,334.8,312,330.9,312z"/>
		<g>
			<path class="st6" d="M342,357.7c-1.2,0-2.3-0.3-3.4-0.9l0,0c-3.2-1.9-4.3-6-2.5-9.3l8.8-15.3c1.2-2.1,3.4-3.4,5.9-3.4
				c1.2,0,2.4,0.3,3.4,0.9l0,0c3.2,1.9,4.3,6,2.5,9.3l-8.8,15.3C346.7,356.4,344.4,357.7,342,357.7L342,357.7z"/>
			<path d="M350.8,331.6c0.7,0,1.4,0.2,2,0.5c1.9,1.1,2.6,3.6,1.5,5.5l-8.8,15.2c-0.8,1.3-2.1,2-3.5,2c-0.7,0-1.4-0.2-2-0.5
				c-1.9-1.1-2.6-3.6-1.5-5.5l8.8-15.2C348,332.4,349.4,331.6,350.8,331.6 M350.8,326c-3.4,0-6.6,1.8-8.4,4.8l-8.8,15.2v0.1
				c-2.6,4.6-1,10.4,3.5,13.1l0,0l0,0c1.4,0.8,3.1,1.2,4.7,1.2c3.4,0,6.6-1.8,8.3-4.8l8.8-15.2v-0.1c2.6-4.6,1-10.4-3.5-13.1l0,0
				l0,0C354.1,326.5,352.4,326,350.8,326L350.8,326z"/>
		</g>
		<g>
			<path class="st6" d="M332.7,388.2c-0.6,0-1.2-0.1-1.7-0.2c-1.8-0.5-3.2-1.6-4.1-3.2s-1.2-3.4-0.7-5.2l4.5-17c0.8-3,3.5-5,6.6-5
				c0.6,0,1.2,0.1,1.7,0.2c1.8,0.5,3.2,1.6,4.1,3.2c0.9,1.6,1.2,3.4,0.7,5.2l-4.5,17C338.5,386.1,335.8,388.2,332.7,388.2
				L332.7,388.2z"/>
			<path d="M337.2,360.4c0.3,0,0.7,0,1,0.1c2.1,0.6,3.4,2.8,2.8,4.9l-4.5,17c-0.5,1.8-2.1,3-3.9,3c-0.3,0-0.7,0-1-0.1
				c-2.1-0.6-3.4-2.8-2.8-4.9l4.5-17C333.8,361.6,335.4,360.4,337.2,360.4 M337.2,354.8c-4.4,0-8.2,2.9-9.3,7.2l-4.5,17
				c-0.6,2.5-0.3,5,1,7.3c1.3,2.2,3.4,3.8,5.8,4.4c0.8,0.2,1.6,0.3,2.4,0.3c4.4,0,8.2-2.9,9.3-7.2l4.5-17c0.6-2.5,0.3-5-1-7.3
				c-1.3-2.2-3.4-3.8-5.8-4.4C338.8,354.9,338,354.8,337.2,354.8z"/>
		</g>
		<g>
			<path class="st6" d="M381.4,323.8c-0.7,0-1.3-0.1-2-0.3l-16.8-5.1c-3.6-1.1-5.6-4.9-4.6-8.5c0.9-2.8,3.6-4.8,6.5-4.8
				c0.7,0,1.3,0.1,2,0.3l16.8,5.1c1.8,0.5,3.2,1.7,4,3.3c0.8,1.6,1,3.4,0.5,5.2C387,321.8,384.4,323.8,381.4,323.8z"/>
			<path d="M364.6,307.8c0.4,0,0.8,0,1.2,0.2l16.8,5.1c2.1,0.6,3.3,2.9,2.7,5c-0.5,1.7-2.1,2.8-3.8,2.8c-0.4,0-0.8,0-1.2-0.2
				l-16.8-5.1c-2.1-0.6-3.3-2.9-2.7-5C361.2,309,362.8,307.8,364.6,307.8 M364.6,302.2c-4.3,0-8,2.8-9.2,6.8
				c-1.5,5.1,1.4,10.4,6.4,12l16.8,5.1c0.9,0.3,1.8,0.4,2.8,0.4c4.3,0,8-2.8,9.2-6.8c1.5-5.1-1.4-10.4-6.4-12l-16.8-5.1
				C366.4,302.4,365.5,302.2,364.6,302.2z"/>
		</g>
		<g>
			<path class="st6" d="M297,304.4c-1.8,0-3.6-0.7-4.8-2c-1.3-1.3-2-3-2-4.8c0-1.8,0.7-3.5,2-4.8l12.4-12.4c1.3-1.3,3-2,4.8-2
				c1.8,0,3.5,0.7,4.8,2c1.3,1.2,2,2.9,2,4.8c0,1.8-0.7,3.6-2,4.8l-12.4,12.4C300.6,303.6,298.8,304.4,297,304.4L297,304.4z"/>
			<path d="M309.5,281.1c1,0,2,0.4,2.8,1.2c1.6,1.5,1.6,4.1,0,5.6l-12.4,12.4c-0.8,0.8-1.8,1.2-2.8,1.2s-2-0.4-2.8-1.2
				c-1.6-1.6-1.6-4.1,0-5.6l12.4-12.4C307.4,281.5,308.5,281.1,309.5,281.1 M309.5,275.5c-2.6,0-5,1-6.8,2.8l-12.4,12.4
				c-1.8,1.8-2.8,4.2-2.8,6.7c0,2.6,1,5,2.8,6.8c1.8,1.8,4.2,2.8,6.8,2.8c2.6,0,5-1,6.8-2.8l12.4-12.4c1.8-1.8,2.8-4.3,2.8-6.8
				c0-2.6-1-4.9-2.8-6.7S312.1,275.5,309.5,275.5L309.5,275.5z"/>
		</g>
	</g>
</g>
<g id="hops">
	<g>
		<path class="st1" d="M388.4,9.1c0,0-2.4,5.6-14.8,16"/>
		<path class="st7" d="M302.4,70.7c0,0-16,13.6-10,36.4c0,0,20,4.8,36.8-11.2C329.2,95.9,356,48.3,302.4,70.7z"/>
		<path class="st7" d="M307.8,48.9c-7.4,3.8-16.4,7.6-18.8,30.8c0,0,13.8,11,39-7C354.3,54,321.6,41.7,307.8,48.9z"/>
		<path class="st7" d="M351,91.7c-4.7,6.8-12.6,16.8-31.6,17.6c0,0-13.3-15.6,9-39S359.8,79,351,91.7z"/>
		<path class="st7" d="M323.2,49.1c0,0-16,13.6-10,36.4c0,0,20,4.8,36.8-11.2C350,74.3,376.8,26.7,323.2,49.1z"/>
		<path class="st7" d="M320.4,22.3c-7.4,3.8-19.2,8.4-22.4,27.2c0,0,15.6,15.2,41.6-4S334.2,15.1,320.4,22.3z M376.8,77.9
			c-3.8,7.4-9.6,19.6-28.4,22.8c0,0-15.2-15.6,3.9-41.6S384,64.2,376.8,77.9z"/>
		<path class="st7" d="M376.2,24.5c0,0,30.8,25.3,3.6,58c0,0-11.3-7.4-16.8-22.4c0,0-16.1,1.9-22.3-2.3l-0.1-0.1
			c-4-6.4-2.4-22.8-2.4-22.8c-14.8-6-21.6-15.6-21.6-15.6C350.2-6.7,376.2,24.5,376.2,24.5z"/>
	</g>
</g>
</svg>
